Darine-Light.ufo
<glyph name="comma-ar" format="1">
  <advance width="225"/>
  <unicode hex="060C"/>
  <outline>
    <contour>
      <point x="43" y="49" type="line"/>
      <point x="71" y="52"/>
      <point x="83" y="53"/>
      <point x="100" y="53" type="curve" smooth="yes"/>
      <point x="164" y="53"/>
      <point x="175" y="44"/>
      <point x="175" y="0" type="curve" smooth="yes"/>
      <point x="175" y="-37"/>
      <point x="170" y="-43"/>
      <point x="129" y="-43" type="curve" smooth="yes"/>
      <point x="64" y="-43"/>
      <point x="50" y="-26"/>
      <point x="50" y="64" type="curve" smooth="yes"/>
      <point x="50" y="164"/>
      <point x="71" y="185"/>
      <point x="175" y="185" type="curve"/>
      <point x="175" y="215" type="line"/>
      <point x="54" y="215"/>
      <point x="20" y="182"/>
      <point x="20" y="64" type="curve" smooth="yes"/>
      <point x="20" y="-42"/>
      <point x="44" y="-73"/>
      <point x="129" y="-73" type="curve" smooth="yes"/>
      <point x="186" y="-73"/>
      <point x="205" y="-55"/>
      <point x="205" y="0" type="curve" smooth="yes"/>
      <point x="205" y="64"/>
      <point x="180" y="83"/>
      <point x="100" y="83" type="curve" smooth="yes"/>
      <point x="81" y="83"/>
      <point x="69" y="82"/>
      <point x="39" y="79" type="curve"/>
    </contour>
  </outline>
</glyph>
<glyph name="semicolon-ar" format="1">
  <advance width="600"/>
  <unicode hex="061B"/>
  <outline>
    <contour>
      <point x="305" y="-8" type="curve" smooth="yes"/>
      <point x="370" y="-8"/>
      <point x="391" y="9"/>
      <point x="391" y="64" type="curve" smooth="yes"/>
      <point x="391" y="121"/>
      <point x="372" y="139"/>
      <point x="310" y="139" type="curve" smooth="yes"/>
      <point x="245" y="139"/>
      <point x="225" y="122"/>
      <point x="225" y="65" type="curve" smooth="yes"/>
      <point x="225" y="9"/>
      <point x="244" y="-8"/>
    </contour>
    <contour>
      <point x="305" y="22" type="curve" smooth="yes"/>
      <point x="260" y="22"/>
      <point x="255" y="28"/>
      <point x="255" y="65" type="curve" smooth="yes"/>
      <point x="255" y="103"/>
      <point x="261" y="109"/>
      <point x="310" y="109" type="curve" smooth="yes"/>
      <point x="356" y="109"/>
      <point x="361" y="103"/>
      <point x="361" y="64" type="curve" smooth="yes"/>
      <point x="361" y="28"/>
      <point x="355" y="22"/>
    </contour>
    <component base="comma-ar" xOffset="179" yOffset="283"/>
  </outline>
</glyph>
<glyph name="question-ar" format="1">
  <advance width="600"/>
  <unicode hex="061F"/>
  <outline>
    <contour>
      <point x="529" y="0" type="line"/>
      <point x="529" y="279"/>
      <point x="529" y="515"/>
      <point x="186" y="515" type="curve" smooth="yes"/>
      <point x="-162" y="515"/>
      <point x="-122" y="985"/>
      <point x="186" y="985" type="curve" smooth="yes"/>
      <point x="240" y="985"/>
      <point x="180" y="985"/>
      <point x="407" y="985" type="curve"/>
      <point x="407" y="1015" type="line"/>
      <point x="181" y="1015"/>
      <point x="238" y="1015"/>
      <point x="186" y="1015" type="curve" smooth="yes"/>
      <point x="-160" y="1015"/>
      <point x="-202" y="485"/>
      <point x="186" y="485" type="curve" smooth="yes"/>
      <point x="499" y="485"/>
      <point x="499" y="279"/>
      <point x="499" y="0" type="curve"/>
    </contour>
    <component base="dotcenter-ar" xOffset="204" yOffset="-228"/>
  </outline>
</glyph>
<glyph name="hamza-ar" format="1">
  <advance width="600"/>
  <unicode hex="0621"/>
  <outline>
    <contour>
      <point x="215" y="483" type="line"/>
      <point x="173" y="523"/>
      <point x="154" y="568"/>
      <point x="154" y="628" type="curve" smooth="yes"/>
      <point x="154" y="771"/>
      <point x="328" y="792"/>
      <point x="381" y="715" type="curve"/>
      <point x="405" y="731" type="line"/>
      <point x="342" y="824"/>
      <point x="124" y="797"/>
      <point x="124" y="628" type="curve" smooth="yes"/>
      <point x="124" y="561"/>
      <point x="147" y="506"/>
      <point x="195" y="461" type="curve"/>
    </contour>
    <contour>
      <point x="50" y="466" type="line"/>
      <point x="193" y="446"/>
      <point x="335" y="447"/>
      <point x="450" y="508" type="curve"/>
      <point x="436" y="534" type="line"/>
      <point x="327" y="477"/>
      <point x="195" y="476"/>
      <point x="54" y="496" type="curve"/>
    </contour>
    <contour>
      <point x="262" y="443" type="move" name="_top"/>
    </contour>
    <contour>
      <point x="252" y="819" type="move" name="top"/>
    </contour>
  </outline>
</glyph>
<glyph name="wawHamzaabove-ar" format="1">
  <advance width="664"/>
  <unicode hex="0624"/>
  <outline>
    <component base="waw-ar" xScale="0.9974" xyScale="-0.0725" yScale="0.9974" yxScale="0.0725" xOffset="104" yOffset="47"/>
    <component base="hamza-ar" xOffset="25" yOffset="224"/>
    <contour>
      <point x="643" y="0" type="move" name="#entry"/>
    </contour>
  </outline>
</glyph>
<glyph name="alef-ar" format="1">
  <advance width="56"/>
  <unicode hex="0627"/>
  <outline>
    <contour>
      <point x="51" y="-18" type="line"/>
      <point x="52" y="482"/>
      <point x="51" y="520"/>
      <point x="35" y="1017" type="curve"/>
      <point x="5" y="1017" type="line"/>
      <point x="21" y="520"/>
      <point x="22" y="482"/>
      <point x="21" y="-18" type="curve"/>
    </contour>
    <contour>
      <point x="58" y="-119" type="move" name="_top"/>
    </contour>
    <contour>
      <point x="13" y="1098" type="move" name="top"/>
    </contour>
  </outline>
</glyph>
<glyph name="hah-ar" format="1">
  <advance width="745"/>
  <unicode hex="062D"/>
  <outline>
    <contour>
      <point x="412" y="-480" type="line"/>
      <point x="172" y="-486"/>
      <point x="30" y="-389"/>
      <point x="30" y="-218" type="curve" smooth="yes"/>
      <point x="30" y="-77"/>
      <point x="183" y="31"/>
      <point x="441" y="31" type="curve" smooth="yes"/>
      <point x="502" y="31"/>
      <point x="566" y="28"/>
      <point x="614" y="21" type="curve"/>
      <point x="618" y="51" type="line"/>
      <point x="571" y="58"/>
      <point x="507" y="61"/>
      <point x="445" y="61" type="curve" smooth="yes"/>
      <point x="165" y="61"/>
      <point x="0" y="-59"/>
      <point x="0" y="-219" type="curve" smooth="yes"/>
      <point x="0" y="-409"/>
      <point x="153" y="-517"/>
      <point x="412" y="-510" type="curve"/>
    </contour>
    <contour>
      <point x="664" y="0" type="curve"/>
      <point x="664" y="30" type="line"/>
      <point x="451" y="95"/>
      <point x="555" y="506"/>
      <point x="276" y="506" type="curve" smooth="yes"/>
      <point x="133" y="506"/>
      <point x="27" y="326"/>
      <point x="9" y="300" type="curve"/>
      <point x="33" y="282" type="line"/>
      <point x="52" y="309"/>
      <point x="151" y="476"/>
      <point x="276" y="476" type="curve" smooth="yes"/>
      <point x="511" y="476"/>
      <point x="419" y="55"/>
    </contour>
    <contour>
      <point x="324" y="-239" type="move" name="top"/>
    </contour>
  </outline>
</glyph>
<glyph name="dal-ar" format="1">
  <advance width="551"/>
  <unicode hex="062F"/>
  <outline>
    <contour>
      <point x="32" y="0" type="line"/>
      <point x="214" y="0"/>
      <point x="546" y="-28"/>
      <point x="546" y="197" type="curve" smooth="yes"/>
      <point x="546" y="311"/>
      <point x="453" y="500"/>
      <point x="72" y="500" type="curve"/>
      <point x="72" y="470" type="line"/>
      <point x="344" y="470"/>
      <point x="516" y="365"/>
      <point x="516" y="197" type="curve" smooth="yes"/>
      <point x="516" y="4"/>
      <point x="216" y="30"/>
      <point x="32" y="30" type="curve"/>
    </contour>
    <contour>
      <point x="17" y="633" type="move" name="top"/>
    </contour>
  </outline>
</glyph>
<glyph name="reh-ar" format="1">
  <advance width="246"/>
  <unicode hex="0631"/>
  <outline>
    <contour>
      <point x="-83" y="-541" type="line"/>
      <point x="378" y="-213"/>
      <point x="234" y="201"/>
      <point x="187" y="494" type="curve"/>
      <point x="158" y="489" type="line"/>
      <point x="205" y="193"/>
      <point x="342" y="-201"/>
      <point x="-100" y="-517" type="curve"/>
    </contour>
    <contour>
      <point x="243" y="0" type="move" name="#entry"/>
    </contour>
    <contour>
      <point x="121" y="682" type="move" name="top"/>
    </contour>
  </outline>
</glyph>
<glyph name="seen-ar" format="1">
  <advance width="1409"/>
  <unicode hex="0633"/>
  <outline>
    <contour>
      <point x="1028" y="151" type="line"/>
      <point x="1105" y="42"/>
      <point x="1210" y="-34"/>
      <point x="1284" y="-34" type="curve" smooth="yes"/>
      <point x="1359" y="-34"/>
      <point x="1399" y="42"/>
      <point x="1399" y="178" type="curve" smooth="yes"/>
      <point x="1399" y="318"/>
      <point x="1355" y="495"/>
      <point x="1344" y="545" type="curve"/>
      <point x="1315" y="539" type="line"/>
      <point x="1326" y="488"/>
      <point x="1369" y="315"/>
      <point x="1369" y="178" type="curve" smooth="yes"/>
      <point x="1369" y="59"/>
      <point x="1338" y="-4"/>
      <point x="1284" y="-4" type="curve" smooth="yes"/>
      <point x="1221" y="-4"/>
      <point x="1124" y="68"/>
      <point x="1052" y="169" type="curve"/>
    </contour>
    <contour>
      <point x="779" y="14" type="line"/>
      <point x="799" y="9"/>
      <point x="840" y="0"/>
      <point x="881" y="-1" type="curve" smooth="yes"/>
      <point x="994" y="-4"/>
      <point x="1055" y="57"/>
      <point x="1055" y="173" type="curve" smooth="yes"/>
      <point x="1055" y="302"/>
      <point x="980" y="467"/>
      <point x="954" y="532" type="curve"/>
      <point x="926" y="521" type="line"/>
      <point x="953" y="455"/>
      <point x="1025" y="295"/>
      <point x="1025" y="173" type="curve" smooth="yes"/>
      <point x="1025" y="74"/>
      <point x="978" y="27"/>
      <point x="881" y="29" type="curve" smooth="yes"/>
      <point x="844" y="30"/>
      <point x="806" y="38"/>
      <point x="788" y="43" type="curve"/>
    </contour>
    <contour>
      <point x="37" y="67" type="line"/>
      <point x="25" y="27"/>
      <point x="20" y="-16"/>
      <point x="20" y="-60" type="curve" smooth="yes"/>
      <point x="20" y="-712"/>
      <point x="822" y="-775"/>
      <point x="822" y="-158" type="curve" smooth="yes"/>
      <point x="823" y="77"/>
      <point x="679" y="327"/>
      <point x="612" y="442" type="curve" smooth="yes"/>
      <point x="596" y="470"/>
      <point x="585" y="489"/>
      <point x="582" y="498" type="curve"/>
      <point x="554" y="488" type="line"/>
      <point x="575" y="433"/>
      <point x="793" y="124"/>
      <point x="792" y="-158" type="curve" smooth="yes"/>
      <point x="792" y="-734"/>
      <point x="50" y="-674"/>
      <point x="50" y="-60" type="curve" smooth="yes"/>
      <point x="50" y="-18"/>
      <point x="55" y="21"/>
      <point x="66" y="59" type="curve"/>
    </contour>
    <contour>
      <point x="1355" y="0" type="move" name="#entry"/>
    </contour>
    <contour>
      <point x="881" y="811" type="move" name="top"/>
    </contour>
  </outline>
</glyph>
<glyph name="sad-ar" format="1">
  <advance width="1704"/>
  <unicode hex="0635"/>
  <outline>
    <contour>
      <point x="5" y="35" type="line"/>
      <point x="2" y="-3"/>
      <point x="0" y="-39"/>
      <point x="0" y="-73" type="curve" smooth="yes"/>
      <point x="0" y="-355"/>
      <point x="110" y="-513"/>
      <point x="313" y="-513" type="curve" smooth="yes"/>
      <point x="334" y="-513"/>
      <point x="356" y="-511"/>
      <point x="384" y="-505" type="curve" smooth="yes"/>
      <point x="638" y="-451"/>
      <point x="794" y="-273"/>
      <point x="794" y="-31" type="curve" smooth="yes"/>
      <point x="794" y="43"/>
      <point x="770" y="126"/>
      <point x="744" y="215" type="curve" smooth="yes"/>
      <point x="718" y="302"/>
      <point x="691" y="396"/>
      <point x="680" y="498" type="curve"/>
      <point x="650" y="495" type="line"/>
      <point x="673" y="282"/>
      <point x="764" y="108"/>
      <point x="764" y="-31" type="curve" smooth="yes"/>
      <point x="764" y="-258"/>
      <point x="619" y="-425"/>
      <point x="378" y="-476" type="curve" smooth="yes"/>
      <point x="353" y="-481"/>
      <point x="332" y="-483"/>
      <point x="313" y="-483" type="curve" smooth="yes"/>
      <point x="128" y="-483"/>
      <point x="30" y="-339"/>
      <point x="30" y="-73" type="curve" smooth="yes"/>
      <point x="30" y="-40"/>
      <point x="32" y="-4"/>
      <point x="35" y="33" type="curve"/>
    </contour>
    <component base="sad-01"/>
    <contour>
      <point x="1164" y="0" type="move" name="#entry"/>
    </contour>
    <contour>
      <point x="832" y="839" type="move" name="top"/>
    </contour>
  </outline>
</glyph>
<glyph name="ain-ar" format="1">
  <advance width="445"/>
  <unicode hex="0639"/>
  <outline>
    <contour>
      <point x="425" y="-528" type="line"/>
      <point x="-87" y="-541"/>
      <point x="-59" y="42"/>
      <point x="394" y="-5" type="curve"/>
      <point x="398" y="25" type="line"/>
      <point x="-97" y="76"/>
      <point x="-129" y="-573"/>
      <point x="425" y="-558" type="curve"/>
    </contour>
    <contour>
      <point x="167" y="-16" type="curve"/>
      <point x="207" y="-2" type="line"/>
      <point x="184" y="8"/>
      <point x="161" y="22"/>
      <point x="144" y="36" type="curve" smooth="yes"/>
      <point x="18" y="144"/>
      <point x="-7" y="286"/>
      <point x="87" y="401" type="curve" smooth="yes"/>
      <point x="141" y="467"/>
      <point x="258" y="488"/>
      <point x="381" y="451" type="curve"/>
      <point x="390" y="482" type="line"/>
      <point x="255" y="519"/>
      <point x="124" y="495"/>
      <point x="64" y="420" type="curve" smooth="yes"/>
      <point x="-40" y="291"/>
      <point x="-16" y="129"/>
      <point x="126" y="11" type="curve" smooth="yes"/>
      <point x="137" y="2"/>
      <point x="152" y="-8"/>
    </contour>
    <contour>
      <point x="97" y="791" type="move" name="top"/>
    </contour>
  </outline>
</glyph>
<glyph name="kaf-ar" format="1">
  <advance width="1000"/>
  <unicode hex="0643"/>
  <outline>
    <contour>
      <point x="23" y="561" type="line"/>
      <point x="-3" y="194"/>
      <point x="164" y="0"/>
      <point x="506" y="0" type="curve" smooth="yes"/>
      <point x="1109" y="0"/>
      <point x="965" y="356"/>
      <point x="965" y="1007" type="curve"/>
      <point x="935" y="1007" type="line"/>
      <point x="941" y="330"/>
      <point x="1060" y="30"/>
      <point x="506" y="30" type="curve" smooth="yes"/>
      <point x="182" y="30"/>
      <point x="28" y="210"/>
      <point x="53" y="559" type="curve"/>
    </contour>
    <component base="hamza-ar" xOffset="216" yOffset="16"/>
  </outline>
</glyph>
<glyph name="lam-ar" format="1">
  <advance width="977"/>
  <unicode hex="0644"/>
  <outline>
    <contour>
      <point x="23" y="69" type="line"/>
      <point x="-3" y="-298"/>
      <point x="164" y="-492"/>
      <point x="506" y="-492" type="curve" smooth="yes"/>
      <point x="764" y="-492"/>
      <point x="971" y="-369"/>
      <point x="977" y="-205" type="curve" smooth="yes"/>
      <point x="978" y="-178"/>
      <point x="975" y="-106"/>
      <point x="972" y="-39" type="curve" smooth="yes"/>
      <point x="970" y="12"/>
      <point x="967" y="60"/>
      <point x="967" y="84" type="curve" smooth="yes"/>
      <point x="962" y="769"/>
      <point x="967" y="860"/>
      <point x="965" y="1075" type="curve"/>
      <point x="935" y="1075" type="line"/>
      <point x="937" y="860"/>
      <point x="932" y="769"/>
      <point x="937" y="84" type="curve" smooth="yes"/>
      <point x="937" y="26"/>
      <point x="950" y="-159"/>
      <point x="947" y="-203" type="curve" smooth="yes"/>
      <point x="937" y="-349"/>
      <point x="748" y="-462"/>
      <point x="506" y="-462" type="curve" smooth="yes"/>
      <point x="182" y="-462"/>
      <point x="28" y="-282"/>
      <point x="53" y="67" type="curve"/>
    </contour>
    <contour>
      <point x="970" y="-1" type="move" name="#entry"/>
    </contour>
    <contour>
      <point x="450" y="781" type="move" name="top"/>
    </contour>
  </outline>
</glyph>
<glyph name="meem-ar" format="1">
  <advance width="724"/>
  <unicode hex="0645"/>
  <outline>
    <contour>
      <point x="455" y="487" type="curve"/>
      <point x="453" y="515" type="line"/>
      <point x="257" y="492"/>
      <point x="7" y="378"/>
      <point x="20" y="185" type="curve" smooth="yes"/>
      <point x="29" y="54"/>
      <point x="31" y="-162"/>
      <point x="32" y="-340" type="curve" smooth="yes"/>
      <point x="33" y="-466"/>
      <point x="26" y="-573"/>
      <point x="25" y="-615" type="curve"/>
      <point x="55" y="-615" type="line"/>
      <point x="56" y="-574"/>
      <point x="63" y="-472"/>
      <point x="62" y="-351" type="curve" smooth="yes"/>
      <point x="61" y="-172"/>
      <point x="60" y="51"/>
      <point x="50" y="185" type="curve" smooth="yes"/>
      <point x="38" y="340"/>
      <point x="269" y="466"/>
    </contour>
    <contour>
      <point x="460" y="30" type="curve" smooth="yes"/>
      <point x="342" y="30"/>
      <point x="246" y="132"/>
      <point x="246" y="257" type="curve" smooth="yes"/>
      <point x="246" y="383"/>
      <point x="342" y="485"/>
      <point x="460" y="485" type="curve" smooth="yes"/>
      <point x="578" y="485"/>
      <point x="674" y="383"/>
      <point x="674" y="257" type="curve" smooth="yes"/>
      <point x="674" y="132"/>
      <point x="578" y="30"/>
    </contour>
    <contour>
      <point x="460" y="0" type="curve" smooth="yes"/>
      <point x="595" y="0"/>
      <point x="704" y="115"/>
      <point x="704" y="257" type="curve" smooth="yes"/>
      <point x="704" y="401"/>
      <point x="595" y="515"/>
      <point x="460" y="515" type="curve" smooth="yes"/>
      <point x="325" y="515"/>
      <point x="216" y="400"/>
      <point x="216" y="257" type="curve" smooth="yes"/>
      <point x="216" y="115"/>
      <point x="325" y="0"/>
    </contour>
  </outline>
</glyph>
<glyph name="heh-ar" format="1">
  <advance width="605"/>
  <unicode hex="0647"/>
  <outline>
    <contour>
      <point x="270" y="30" type="curve" smooth="yes"/>
      <point x="0" y="30"/>
      <point x="63" y="472"/>
      <point x="328" y="472" type="curve" smooth="yes"/>
      <point x="545" y="472"/>
      <point x="593" y="30"/>
    </contour>
    <contour>
      <point x="270" y="0" type="curve" smooth="yes"/>
      <point x="635" y="0"/>
      <point x="583" y="502"/>
      <point x="328" y="502" type="curve" smooth="yes"/>
      <point x="27" y="502"/>
      <point x="-42" y="0"/>
    </contour>
    <contour>
      <point x="305" y="664" type="move" name="top"/>
    </contour>
  </outline>
</glyph>
<glyph name="waw-ar" format="1">
  <advance width="600"/>
  <unicode hex="0648"/>
  <outline>
    <contour>
      <point x="174" y="-509" type="line"/>
      <point x="436" y="-374"/>
      <point x="554" y="-169"/>
      <point x="554" y="152" type="curve" smooth="yes"/>
      <point x="554" y="638"/>
      <point x="6" y="702"/>
      <point x="6" y="252" type="curve" smooth="yes"/>
      <point x="6" y="28"/>
      <point x="207" y="-31"/>
      <point x="540" y="-5" type="curve"/>
      <point x="540" y="25" type="line"/>
      <point x="228" y="1"/>
      <point x="36" y="45"/>
      <point x="36" y="252" type="curve" smooth="yes"/>
      <point x="36" y="660"/>
      <point x="524" y="600"/>
      <point x="524" y="152" type="curve" smooth="yes"/>
      <point x="524" y="-158"/>
      <point x="412" y="-353"/>
      <point x="160" y="-483" type="curve"/>
    </contour>
    <contour>
      <point x="159" y="764" type="move" name="top"/>
    </contour>
  </outline>
</glyph>
<glyph name="alefMaksura-ar" format="1">
  <advance width="1050"/>
  <unicode hex="0649"/>
  <outline>
    <contour>
      <point x="11" y="31" type="line"/>
      <point x="-42" y="-381"/>
      <point x="88" y="-515"/>
      <point x="532" y="-515" type="curve" smooth="yes"/>
      <point x="878" y="-515"/>
      <point x="1050" y="-417"/>
      <point x="1050" y="-216" type="curve" smooth="yes"/>
      <point x="1050" y="23"/>
      <point x="824" y="25"/>
      <point x="638" y="27" type="curve" smooth="yes"/>
      <point x="490" y="28"/>
      <point x="372" y="29"/>
      <point x="372" y="126" type="curve" smooth="yes"/>
      <point x="372" y="382"/>
      <point x="642" y="536"/>
      <point x="830" y="486" type="curve"/>
      <point x="838" y="516" type="line"/>
      <point x="638" y="568"/>
      <point x="342" y="400"/>
      <point x="342" y="126" type="curve" smooth="yes"/>
      <point x="342" y="-153"/>
      <point x="1020" y="167"/>
      <point x="1020" y="-216" type="curve" smooth="yes"/>
      <point x="1020" y="-398"/>
      <point x="861" y="-485"/>
      <point x="532" y="-485" type="curve" smooth="yes"/>
      <point x="106" y="-485"/>
      <point x="-10" y="-365"/>
      <point x="41" y="27" type="curve"/>
    </contour>
    <contour>
      <point x="106" y="291" type="move" name="top"/>
    </contour>
  </outline>
</glyph>
<glyph name="fathatan-ar" format="1">
  <advance width="600"/>
  <unicode hex="064B"/>
  <outline>
    <contour>
      <point x="281" y="857" type="curve"/>
      <point x="378" y="880"/>
      <point x="477" y="904"/>
      <point x="574" y="932" type="curve" smooth="yes"/>
      <point x="600" y="939"/>
      <point x="591" y="967"/>
      <point x="566" y="960" type="curve"/>
      <point x="469" y="934"/>
      <point x="372" y="910"/>
      <point x="275" y="887" type="curve" smooth="yes"/>
      <point x="248" y="881"/>
      <point x="253" y="851"/>
    </contour>
    <contour>
      <point x="281" y="812" type="curve"/>
      <point x="378" y="835"/>
      <point x="477" y="861"/>
      <point x="574" y="887" type="curve" smooth="yes"/>
      <point x="600" y="894"/>
      <point x="591" y="922"/>
      <point x="566" y="915" type="curve"/>
      <point x="469" y="889"/>
      <point x="372" y="864"/>
      <point x="275" y="842" type="curve" smooth="yes"/>
      <point x="248" y="836"/>
      <point x="253" y="806"/>
    </contour>
    <contour>
      <point x="423" y="791" type="move" name="_top"/>
    </contour>
    <contour>
      <point x="423" y="961" type="move" name="top"/>
    </contour>
  </outline>
</glyph>
<glyph name="dammatan-ar" format="1">
  <advance width="501"/>
  <unicode hex="064C"/>
  <outline>
    <contour>
      <point x="356" y="718" type="curve" smooth="yes"/>
      <point x="549" y="718"/>
      <point x="549" y="1009"/>
      <point x="356" y="1011" type="curve" smooth="yes"/>
      <point x="141" y="1013"/>
      <point x="137" y="718"/>
    </contour>
    <contour>
      <point x="356" y="748" type="curve" smooth="yes"/>
      <point x="177" y="748"/>
      <point x="181" y="983"/>
      <point x="356" y="981" type="curve" smooth="yes"/>
      <point x="509" y="979"/>
      <point x="511" y="748"/>
    </contour>
    <contour>
      <point x="456" y="801" type="line"/>
      <point x="366" y="659"/>
      <point x="278" y="638"/>
      <point x="139" y="703" type="curve"/>
      <point x="127" y="675" type="line"/>
      <point x="282" y="604"/>
      <point x="384" y="631"/>
      <point x="480" y="785" type="curve"/>
    </contour>
    <contour>
      <point x="0" y="907" type="line"/>
      <point x="140" y="814"/>
      <point x="158" y="728"/>
      <point x="91" y="588" type="curve"/>
      <point x="118" y="575" type="line"/>
      <point x="193" y="728"/>
      <point x="168" y="832"/>
      <point x="18" y="931" type="curve"/>
    </contour>
    <contour>
      <point x="250" y="555" type="move" name="_top"/>
    </contour>
    <contour>
      <point x="250" y="1011" type="move" name="top"/>
    </contour>
  </outline>
</glyph>
<glyph name="fatha-ar" format="1">
  <advance width="600"/>
  <unicode hex="064E"/>
  <outline>
    <contour>
      <point x="279" y="812" type="curve"/>
      <point x="376" y="835"/>
      <point x="475" y="861"/>
      <point x="572" y="887" type="curve" smooth="yes"/>
      <point x="598" y="894"/>
      <point x="589" y="922"/>
      <point x="564" y="915" type="curve"/>
      <point x="467" y="889"/>
      <point x="370" y="864"/>
      <point x="273" y="842" type="curve" smooth="yes"/>
      <point x="246" y="836"/>
      <point x="251" y="806"/>
    </contour>
    <contour>
      <point x="421" y="791" type="move" name="_top"/>
    </contour>
    <contour>
      <point x="421" y="916" type="move" name="top"/>
    </contour>
  </outline>
</glyph>
<glyph name="damma-ar" format="1">
  <advance width="600"/>
  <unicode hex="064F"/>
  <outline>
    <contour>
      <point x="356" y="718" type="curve" smooth="yes"/>
      <point x="549" y="718"/>
      <point x="549" y="1009"/>
      <point x="356" y="1011" type="curve" smooth="yes"/>
      <point x="141" y="1013"/>
      <point x="137" y="718"/>
    </contour>
    <contour>
      <point x="356" y="748" type="curve" smooth="yes"/>
      <point x="177" y="748"/>
      <point x="181" y="983"/>
      <point x="356" y="981" type="curve" smooth="yes"/>
      <point x="509" y="979"/>
      <point x="511" y="748"/>
    </contour>
    <contour>
      <point x="456" y="801" type="line"/>
      <point x="366" y="659"/>
      <point x="278" y="638"/>
      <point x="139" y="703" type="curve"/>
      <point x="127" y="675" type="line"/>
      <point x="282" y="604"/>
      <point x="384" y="631"/>
      <point x="480" y="785" type="curve"/>
    </contour>
    <contour>
      <point x="314" y="618" type="move" name="_top"/>
    </contour>
    <contour>
      <point x="314" y="1011" type="move" name="top"/>
    </contour>
  </outline>
</glyph>
<glyph name="kasra-ar" format="1">
  <advance width="600"/>
  <unicode hex="0650"/>
  <outline>
    <component base="fatha-ar" xOffset="-60" yOffset="-1079"/>
    <contour>
      <point x="361" y="-143" type="move" name="_bottom"/>
    </contour>
    <contour>
      <point x="361" y="-268" type="move" name="bottom"/>
    </contour>
  </outline>
</glyph>
<glyph name="shadda-ar" format="1">
  <advance width="600"/>
  <unicode hex="0651"/>
  <outline>
    <contour>
      <point x="378" y="840" type="line"/>
      <point x="398" y="755"/>
      <point x="443" y="697"/>
      <point x="491" y="697" type="curve" smooth="yes"/>
      <point x="551" y="697"/>
      <point x="614" y="778"/>
      <point x="614" y="853" type="curve"/>
      <point x="584" y="853" type="line"/>
      <point x="584" y="795"/>
      <point x="534" y="727"/>
      <point x="491" y="727" type="curve" smooth="yes"/>
      <point x="460" y="727"/>
      <point x="424" y="776"/>
      <point x="408" y="846" type="curve"/>
    </contour>
    <contour>
      <point x="210" y="847" type="line"/>
      <point x="210" y="771"/>
      <point x="254" y="704"/>
      <point x="306" y="704" type="curve" smooth="yes"/>
      <point x="361" y="704"/>
      <point x="414" y="778"/>
      <point x="408" y="844" type="curve"/>
      <point x="378" y="842" type="line"/>
      <point x="382" y="793"/>
      <point x="342" y="734"/>
      <point x="306" y="734" type="curve" smooth="yes"/>
      <point x="273" y="734"/>
      <point x="240" y="788"/>
      <point x="240" y="847" type="curve"/>
    </contour>
  </outline>
</glyph>
<glyph name="sukun-ar" format="1">
  <advance width="600"/>
  <unicode hex="0652"/>
  <outline>
    <contour>
      <point x="273" y="823" type="curve" smooth="yes"/>
      <point x="273" y="662"/>
      <point x="497" y="661"/>
      <point x="497" y="823" type="curve" smooth="yes"/>
      <point x="497" y="984"/>
      <point x="273" y="983"/>
    </contour>
    <contour>
      <point x="303" y="823" type="curve" smooth="yes"/>
      <point x="303" y="944"/>
      <point x="467" y="944"/>
      <point x="467" y="823" type="curve" smooth="yes"/>
      <point x="467" y="701"/>
      <point x="303" y="701"/>
    </contour>
    <contour>
      <point x="385" y="682" type="move" name="_top"/>
    </contour>
    <contour>
      <point x="385" y="943" type="move" name="top"/>
    </contour>
  </outline>
</glyph>
<glyph name="madda-ar" format="1">
  <advance width="600"/>
  <unicode hex="0653"/>
  <outline>
    <contour>
      <point x="87" y="868" type="curve" smooth="yes"/>
      <point x="92" y="870"/>
      <point x="97" y="873"/>
      <point x="104" y="875" type="curve"/>
      <point x="142" y="890"/>
      <point x="230" y="913"/>
      <point x="255" y="913" type="curve" smooth="yes"/>
      <point x="289" y="913"/>
      <point x="308" y="897"/>
      <point x="322" y="884" type="curve"/>
      <point x="338" y="871"/>
      <point x="349" y="861"/>
      <point x="377" y="861" type="curve" smooth="yes"/>
      <point x="395" y="861"/>
      <point x="455" y="873"/>
      <point x="475" y="878" type="curve"/>
      <point x="500" y="882"/>
      <point x="505" y="853"/>
      <point x="481" y="848" type="curve" smooth="yes"/>
      <point x="458" y="843"/>
      <point x="397" y="831"/>
      <point x="377" y="831" type="curve" smooth="yes"/>
      <point x="289" y="831"/>
      <point x="307" y="883"/>
      <point x="255" y="883" type="curve" smooth="yes"/>
      <point x="232" y="883"/>
      <point x="131" y="852"/>
      <point x="96" y="840" type="curve" smooth="yes"/>
      <point x="73" y="832"/>
      <point x="63" y="858"/>
    </contour>
    <contour>
      <point x="280" y="811" type="move" name="_top"/>
    </contour>
    <contour>
      <point x="280" y="913" type="move" name="top"/>
    </contour>
  </outline>
</glyph>
<glyph name="zero-ar" format="1">
  <advance width="600"/>
  <unicode hex="0660"/>
  <outline>
    <contour>
      <point x="278" y="429" type="curve" smooth="yes"/>
      <point x="319" y="429"/>
      <point x="338" y="451"/>
      <point x="338" y="499" type="curve" smooth="yes"/>
      <point x="338" y="547"/>
      <point x="319" y="569"/>
      <point x="278" y="569" type="curve" smooth="yes"/>
      <point x="236" y="569"/>
      <point x="217" y="547"/>
      <point x="217" y="499" type="curve" smooth="yes"/>
      <point x="217" y="451"/>
      <point x="236" y="429"/>
    </contour>
  </outline>
</glyph>
<glyph name="one-ar" format="1">
  <advance width="600"/>
  <unicode hex="0661"/>
  <outline>
    <contour>
      <point x="323" y="0" type="line"/>
      <point x="320" y="333"/>
      <point x="314" y="667"/>
      <point x="303" y="1000" type="curve"/>
      <point x="273" y="1000" type="line"/>
      <point x="284" y="667"/>
      <point x="290" y="333"/>
      <point x="293" y="0" type="curve"/>
    </contour>
  </outline>
</glyph>
<glyph name="two-ar" format="1">
  <advance width="453"/>
  <unicode hex="0662"/>
  <outline>
    <contour>
      <point x="433" y="985" type="line"/>
      <point x="121" y="980"/>
      <point x="49" y="950"/>
      <point x="49" y="833" type="curve" smooth="yes"/>
      <point x="49" y="776"/>
      <point x="49" y="706"/>
      <point x="49" y="628" type="curve" smooth="yes"/>
      <point x="48" y="529"/>
      <point x="48" y="419"/>
      <point x="48" y="305" type="curve" smooth="yes"/>
      <point x="48" y="108"/>
      <point x="48" y="47"/>
      <point x="49" y="0" type="curve"/>
      <point x="19" y="0" type="line"/>
      <point x="18" y="47"/>
      <point x="18" y="108"/>
      <point x="18" y="305" type="curve" smooth="yes"/>
      <point x="18" y="509"/>
      <point x="19" y="704"/>
      <point x="19" y="833" type="curve" smooth="yes"/>
      <point x="19" y="973"/>
      <point x="108" y="1010"/>
      <point x="433" y="1015" type="curve"/>
    </contour>
  </outline>
</glyph>
<glyph name="three-ar" format="1">
  <advance width="824"/>
  <unicode hex="0663"/>
  <outline>
    <contour>
      <point x="750" y="1005" type="line"/>
      <point x="867" y="568"/>
      <point x="557" y="405"/>
      <point x="341" y="565" type="curve"/>
      <point x="323" y="541" type="line"/>
      <point x="555" y="369"/>
      <point x="903" y="552"/>
      <point x="778" y="1013" type="curve"/>
    </contour>
    <contour>
      <point x="386" y="995" type="line"/>
      <point x="530" y="588"/>
      <point x="260" y="466"/>
      <point x="71" y="561" type="curve"/>
      <point x="57" y="535" type="line"/>
      <point x="260" y="432"/>
      <point x="568" y="572"/>
      <point x="414" y="1005" type="curve"/>
    </contour>
    <contour>
      <point x="69" y="6" type="line"/>
      <point x="79" y="368"/>
      <point x="79" y="631"/>
      <point x="50" y="1015" type="curve"/>
      <point x="20" y="1013" type="line"/>
      <point x="49" y="629"/>
      <point x="49" y="368"/>
      <point x="39" y="6" type="curve"/>
    </contour>
  </outline>
</glyph>
<glyph name="four-ar" format="1">
  <advance width="600"/>
  <unicode hex="0664"/>
  <outline>
    <contour>
      <point x="431" y="526" type="line"/>
      <point x="179" y="526"/>
      <point x="73" y="453"/>
      <point x="73" y="274" type="curve" smooth="yes"/>
      <point x="73" y="61"/>
      <point x="191" y="0"/>
      <point x="571" y="0" type="curve"/>
      <point x="571" y="30" type="line"/>
      <point x="205" y="30"/>
      <point x="103" y="82"/>
      <point x="103" y="274" type="curve" smooth="yes"/>
      <point x="103" y="434"/>
      <point x="193" y="496"/>
      <point x="431" y="496" type="curve"/>
    </contour>
    <contour>
      <point x="431" y="526" type="line"/>
      <point x="181" y="526"/>
      <point x="95" y="584"/>
      <point x="95" y="753" type="curve" smooth="yes"/>
      <point x="95" y="912"/>
      <point x="192" y="964"/>
      <point x="425" y="967" type="curve"/>
      <point x="427" y="997" type="line"/>
      <point x="178" y="995"/>
      <point x="65" y="931"/>
      <point x="65" y="753" type="curve" smooth="yes"/>
      <point x="65" y="565"/>
      <point x="165" y="496"/>
      <point x="431" y="496" type="curve"/>
    </contour>
  </outline>
</glyph>
<glyph name="five-ar" format="1">
  <advance width="859"/>
  <unicode hex="0665"/>
  <outline>
    <contour>
      <point x="839" y="503" type="curve" smooth="yes"/>
      <point x="839" y="838"/>
      <point x="709" y="1002"/>
      <point x="439" y="1007" type="curve" smooth="yes"/>
      <point x="156" y="1012"/>
      <point x="20" y="848"/>
      <point x="20" y="503" type="curve" smooth="yes"/>
      <point x="20" y="162"/>
      <point x="154" y="0"/>
      <point x="437" y="0" type="curve" smooth="yes"/>
      <point x="716" y="0"/>
      <point x="839" y="156"/>
    </contour>
    <contour>
      <point x="809" y="503" type="curve" smooth="yes"/>
      <point x="809" y="171"/>
      <point x="697" y="30"/>
      <point x="437" y="30" type="curve" smooth="yes"/>
      <point x="172" y="30"/>
      <point x="50" y="178"/>
      <point x="50" y="503" type="curve" smooth="yes"/>
      <point x="50" y="833"/>
      <point x="173" y="982"/>
      <point x="439" y="977" type="curve" smooth="yes"/>
      <point x="691" y="972"/>
      <point x="809" y="822"/>
    </contour>
  </outline>
</glyph>
<glyph name="six-ar" format="1">
  <advance width="531"/>
  <unicode hex="0666"/>
  <outline>
    <contour>
      <point x="510" y="10" type="line"/>
      <point x="511" y="57"/>
      <point x="511" y="78"/>
      <point x="511" y="275" type="curve" smooth="yes"/>
      <point x="511" y="378"/>
      <point x="511" y="452"/>
      <point x="510" y="524" type="curve"/>
      <point x="510" y="595"/>
      <point x="510" y="666"/>
      <point x="510" y="762" type="curve" smooth="yes"/>
      <point x="510" y="932"/>
      <point x="379" y="994"/>
      <point x="20" y="1000" type="curve"/>
      <point x="20" y="970" type="line"/>
      <point x="363" y="965"/>
      <point x="480" y="911"/>
      <point x="480" y="762" type="curve" smooth="yes"/>
      <point x="480" y="567"/>
      <point x="481" y="479"/>
      <point x="481" y="275" type="curve" smooth="yes"/>
      <point x="481" y="78"/>
      <point x="481" y="57"/>
      <point x="480" y="10" type="curve"/>
    </contour>
  </outline>
</glyph>
<glyph name="seven-ar" format="1">
  <advance width="671"/>
  <unicode hex="0667"/>
  <outline>
    <contour>
      <point x="20" y="1015" type="line"/>
      <point x="20" y="375"/>
      <point x="137" y="1"/>
      <point x="343" y="0" type="curve" smooth="yes"/>
      <point x="539" y="-1"/>
      <point x="651" y="374"/>
      <point x="651" y="1015" type="curve"/>
      <point x="621" y="1015" type="line"/>
      <point x="621" y="398"/>
      <point x="514" y="29"/>
      <point x="343" y="30" type="curve" smooth="yes"/>
      <point x="161" y="31"/>
      <point x="50" y="398"/>
      <point x="50" y="1015" type="curve"/>
    </contour>
  </outline>
</glyph>
<glyph name="nine-ar" format="1">
  <advance width="599"/>
  <unicode hex="0669"/>
  <outline>
    <contour>
      <point x="570" y="13" type="line"/>
      <point x="570" y="759" type="line"/>
      <point x="540" y="759" type="line"/>
      <point x="540" y="13" type="line"/>
    </contour>
    <contour>
      <point x="300" y="481" type="curve" smooth="yes"/>
      <point x="506" y="481"/>
      <point x="570" y="547"/>
      <point x="570" y="759" type="curve" smooth="yes"/>
      <point x="570" y="969"/>
      <point x="510" y="1029"/>
      <point x="300" y="1029" type="curve" smooth="yes"/>
      <point x="90" y="1029"/>
      <point x="29" y="968"/>
      <point x="29" y="759" type="curve" smooth="yes"/>
      <point x="29" y="547"/>
      <point x="94" y="481"/>
    </contour>
    <contour>
      <point x="300" y="511" type="curve" smooth="yes"/>
      <point x="111" y="511"/>
      <point x="59" y="564"/>
      <point x="59" y="759" type="curve" smooth="yes"/>
      <point x="59" y="951"/>
      <point x="107" y="999"/>
      <point x="300" y="999" type="curve" smooth="yes"/>
      <point x="492" y="999"/>
      <point x="540" y="951"/>
      <point x="540" y="759" type="curve" smooth="yes"/>
      <point x="540" y="564"/>
      <point x="489" y="511"/>
    </contour>
  </outline>
</glyph>
<glyph name="decimalseparator-ar" format="1">
  <advance width="195"/>
  <unicode hex="066B"/>
  <outline>
    <contour>
      <point x="35" y="-103" type="line"/>
      <point x="118" y="-103"/>
      <point x="175" y="-48"/>
      <point x="175" y="33" type="curve" smooth="yes"/>
      <point x="175" y="210"/>
      <point x="20" y="171"/>
      <point x="20" y="84" type="curve" smooth="yes"/>
      <point x="20" y="33"/>
      <point x="76" y="0"/>
      <point x="158" y="0" type="curve"/>
      <point x="158" y="30" type="line"/>
      <point x="93" y="30"/>
      <point x="50" y="53"/>
      <point x="50" y="84" type="curve" smooth="yes"/>
      <point x="50" y="137"/>
      <point x="145" y="164"/>
      <point x="145" y="33" type="curve" smooth="yes"/>
      <point x="145" y="-32"/>
      <point x="102" y="-73"/>
      <point x="35" y="-73" type="curve"/>
    </contour>
  </outline>
</glyph>
<glyph name="thousandseparator-ar" format="1">
  <advance width="122"/>
  <unicode hex="066C"/>
  <outline>
    <contour>
      <point x="20" y="-107" type="curve" smooth="yes"/>
      <point x="0" y="-130"/>
      <point x="28" y="-143"/>
      <point x="44" y="-125" type="curve"/>
      <point x="79" y="-82"/>
      <point x="109" y="30"/>
      <point x="109" y="118" type="curve"/>
      <point x="109" y="148"/>
      <point x="79" y="143"/>
      <point x="79" y="118" type="curve" smooth="yes"/>
      <point x="79" y="37"/>
      <point x="51" y="-69"/>
    </contour>
  </outline>
</glyph>
<glyph name="behDotless-ar" format="1">
  <advance width="1163"/>
  <unicode hex="066E"/>
  <outline>
    <contour>
      <point x="74" y="504" type="line"/>
      <point x="-44" y="181"/>
      <point x="75" y="2"/>
      <point x="457" y="2" type="curve" smooth="yes"/>
      <point x="471" y="2"/>
      <point x="492" y="2"/>
      <point x="515" y="1" type="curve" smooth="yes"/>
      <point x="590" y="0"/>
      <point x="700" y="-2"/>
      <point x="759" y="5" type="curve" smooth="yes"/>
      <point x="1247" y="61"/>
      <point x="1141" y="254"/>
      <point x="1077" y="512" type="curve"/>
      <point x="1048" y="506" type="line"/>
      <point x="1113" y="244"/>
      <point x="1200" y="86"/>
      <point x="756" y="35" type="curve" smooth="yes"/>
      <point x="680" y="26"/>
      <point x="517" y="32"/>
      <point x="457" y="32" type="curve" smooth="yes"/>
      <point x="97" y="32"/>
      <point x="-10" y="192"/>
      <point x="103" y="496" type="curve"/>
    </contour>
    <contour>
      <point x="1159" y="0" type="move" name="#entry"/>
    </contour>
    <contour>
      <point x="75" y="2" type="move" name="#exit"/>
    </contour>
  </outline>
</glyph>
<glyph name="qafDotless-ar" format="1">
  <advance width="864"/>
  <unicode hex="066F"/>
  <outline>
    <contour>
      <point x="29" y="5" type="line"/>
      <point x="-36" y="-391"/>
      <point x="267" y="-640"/>
      <point x="603" y="-463" type="curve" smooth="yes"/>
      <point x="779" y="-371"/>
      <point x="843" y="-144"/>
      <point x="798" y="196" type="curve" smooth="yes"/>
      <point x="773" y="388"/>
      <point x="673" y="505"/>
      <point x="533" y="505" type="curve" smooth="yes"/>
      <point x="393" y="505"/>
      <point x="262" y="375"/>
      <point x="262" y="225" type="curve" smooth="yes"/>
      <point x="265" y="-5"/>
      <point x="581" y="-52"/>
      <point x="844" y="54" type="curve"/>
      <point x="833" y="81" type="line"/>
      <point x="591" y="-15"/>
      <point x="295" y="25"/>
      <point x="292" y="225" type="curve" smooth="yes"/>
      <point x="292" y="357"/>
      <point x="407" y="475"/>
      <point x="533" y="475" type="curve" smooth="yes"/>
      <point x="657" y="475"/>
      <point x="745" y="370"/>
      <point x="768" y="192" type="curve" smooth="yes"/>
      <point x="812" y="-135"/>
      <point x="752" y="-351"/>
      <point x="589" y="-437" type="curve" smooth="yes"/>
      <point x="275" y="-602"/>
      <point x="-3" y="-371"/>
      <point x="58" y="0" type="curve"/>
    </contour>
    <contour>
      <point x="509" y="725" type="move" name="top"/>
    </contour>
  </outline>
</glyph>
<glyph name="fehDotless-ar" format="1">
  <advance width="1304"/>
  <unicode hex="06A1"/>
  <outline>
    <contour>
      <point x="520" y="-5"/>
      <point x="834" y="-5"/>
      <point x="884" y="0" type="curve" smooth="yes"/>
      <point x="1061" y="18"/>
      <point x="1257" y="31"/>
      <point x="1257" y="239" type="curve" smooth="yes"/>
      <point x="1257" y="476"/>
      <point x="1076" y="659"/>
      <point x="876" y="546" type="curve" smooth="yes"/>
      <point x="782" y="492"/>
      <point x="726" y="400"/>
      <point x="726" y="298" type="curve" smooth="yes"/>
      <point x="726" y="160"/>
      <point x="809" y="117"/>
      <point x="966" y="117" type="curve" smooth="yes"/>
      <point x="1061" y="117"/>
      <point x="1188" y="146"/>
      <point x="1284" y="189" type="curve"/>
      <point x="1272" y="216" type="line"/>
      <point x="1180" y="179"/>
      <point x="1056" y="147"/>
      <point x="966" y="147" type="curve" smooth="yes"/>
      <point x="829" y="147"/>
      <point x="758" y="174"/>
      <point x="756" y="298" type="curve"/>
      <point x="756" y="389"/>
      <point x="806" y="472"/>
      <point x="891" y="520" type="curve" smooth="yes"/>
      <point x="1068" y="620"/>
      <point x="1227" y="454"/>
      <point x="1227" y="240" type="curve" smooth="yes"/>
      <point x="1227" y="91"/>
      <point x="1121" y="46"/>
      <point x="884" y="30" type="curve" smooth="yes"/>
      <point x="812" y="25"/>
      <point x="529" y="24"/>
      <point x="437" y="29" type="curve" smooth="yes"/>
      <point x="77" y="49"/>
      <point x="-30" y="184"/>
      <point x="83" y="558" type="curve"/>
      <point x="54" y="568" type="line"/>
      <point x="-64" y="175"/>
      <point x="55" y="23"/>
      <point x="437" y="0" type="curve" smooth="yes"/>
    </contour>
    <contour>
      <point x="891" y="781" type="move" name="top"/>
    </contour>
  </outline>
</glyph>
<glyph name="noonghunna-ar" format="1">
  <advance width="789"/>
  <unicode hex="06BA"/>
  <outline>
    <contour>
      <point x="17" y="59" type="line"/>
      <point x="-3" y="-44"/>
      <point x="-84" y="-526"/>
      <point x="429" y="-515" type="curve" smooth="yes"/>
      <point x="904" y="-505"/>
      <point x="791" y="65"/>
      <point x="740" y="502" type="curve"/>
      <point x="710" y="498" type="line"/>
      <point x="761" y="61"/>
      <point x="868" y="-475"/>
      <point x="429" y="-485" type="curve" smooth="yes"/>
      <point x="-48" y="-496"/>
      <point x="27" y="-50"/>
      <point x="47" y="53" type="curve"/>
    </contour>
    <contour>
      <point x="788" y="0" type="move" name="#entry"/>
    </contour>
    <contour>
      <point x="355" y="273" type="move" name="top"/>
    </contour>
  </outline>
</glyph>
<glyph name="noonghunna-ar.fina" format="1">
  <advance width="905"/>
  <unicode hex="FB9F"/>
  <outline>
    <component base="_connection2" xOffset="788"/>
    <component base="noonghunna-ar"/>
    <contour>
      <point x="383" y="305" type="move" name="top"/>
    </contour>
  </outline>
</glyph>
<glyph name="alef-ar.fina" format="1">
  <advance width="176"/>
  <unicode hex="FE8E"/>
  <outline>
    <contour>
      <point x="25" y="1036" type="line"/>
      <point x="24" y="893"/>
      <point x="23" y="771"/>
      <point x="22" y="665" type="curve" smooth="yes"/>
      <point x="21" y="570"/>
      <point x="20" y="489"/>
      <point x="20" y="420" type="curve" smooth="yes"/>
      <point x="20" y="145"/>
      <point x="23" y="0"/>
      <point x="176" y="0" type="curve"/>
      <point x="176" y="30" type="line"/>
      <point x="53" y="30"/>
      <point x="50" y="145"/>
      <point x="50" y="420" type="curve" smooth="yes"/>
      <point x="50" y="566"/>
      <point x="54" y="765"/>
      <point x="55" y="1036" type="curve"/>
    </contour>
    <contour>
      <point x="176" y="0" type="move" name="#entry"/>
    </contour>
    <contour>
      <point x="69" y="-155" type="move" name="_top"/>
    </contour>
    <contour>
      <point x="61" y="1176" type="move" name="top"/>
    </contour>
  </outline>
</glyph>
<glyph name="jeem-ar.fina" format="1">
  <advance width="745"/>
  <unicode hex="FE9E"/>
  <outline>
    <contour>
      <point x="745" y="0" type="curve"/>
      <point x="745" y="30" type="line"/>
      <point x="715" y="29"/>
      <point x="693" y="33"/>
      <point x="664" y="40" type="curve"/>
      <point x="664" y="10" type="line"/>
      <point x="693" y="4"/>
      <point x="717" y="-1"/>
    </contour>
    <component base="hah-ar" yOffset="10"/>
    <component base="dotcenter-ar" yOffset="-232"/>
    <contour>
      <point x="745" y="0" type="move" name="#entry"/>
    </contour>
  </outline>
</glyph>
<glyph name="jeem-ar.medi" format="1">
  <advance width="967"/>
  <unicode hex="FEA0"/>
  <outline>
    <contour>
      <point x="831" y="49" type="curve"/>
      <point x="820" y="21" type="line"/>
      <point x="885" y="0"/>
      <point x="919" y="-2"/>
      <point x="967" y="0" type="curve"/>
      <point x="967" y="30" type="line"/>
      <point x="923" y="28"/>
      <point x="893" y="30"/>
    </contour>
    <component base="jeem-ar.init"/>
    <contour>
      <point x="967" y="0" type="move" name="#entry"/>
    </contour>
  </outline>
</glyph>
<glyph name="hah-ar.fina" format="1">
  <advance width="775"/>
  <unicode hex="FEA2"/>
  <outline>
    <contour>
      <point x="775" y="30" type="line"/>
      <point x="730" y="34"/>
      <point x="706" y="38"/>
      <point x="664" y="50" type="curve"/>
      <point x="664" y="20" type="line"/>
      <point x="708" y="10"/>
      <point x="736" y="5"/>
      <point x="775" y="0" type="curve"/>
    </contour>
    <component base="hah-ar" yOffset="20"/>
    <contour>
      <point x="775" y="0" type="move" name="#entry"/>
    </contour>
  </outline>
</glyph>
<glyph name="hah-ar.init" format="1">
  <advance width="871"/>
  <unicode hex="FEA3"/>
  <outline>
    <contour>
      <point x="831" y="49" type="line"/>
      <point x="659" y="115"/>
      <point x="602" y="241"/>
      <point x="536" y="343" type="curve" smooth="yes"/>
      <point x="467" y="449"/>
      <point x="395" y="503"/>
      <point x="320" y="503" type="curve" smooth="yes"/>
      <point x="177" y="503"/>
      <point x="71" y="323"/>
      <point x="53" y="297" type="curve"/>
      <point x="77" y="279" type="line"/>
      <point x="96" y="306"/>
      <point x="195" y="473"/>
      <point x="320" y="473" type="curve" smooth="yes"/>
      <point x="384" y="473"/>
      <point x="447" y="425"/>
      <point x="511" y="327" type="curve" smooth="yes"/>
      <point x="576" y="227"/>
      <point x="636" y="92"/>
      <point x="820" y="21" type="curve"/>
    </contour>
    <contour>
      <point x="0" y="0" type="line"/>
      <point x="216" y="2"/>
      <point x="391" y="-28"/>
      <point x="631" y="105" type="curve" smooth="yes"/>
      <point x="643" y="112"/>
      <point x="652" y="115"/>
      <point x="663" y="120" type="curve"/>
      <point x="651" y="148" type="line"/>
      <point x="640" y="143"/>
      <point x="629" y="138"/>
      <point x="617" y="131" type="curve" smooth="yes"/>
      <point x="383" y="2"/>
      <point x="216" y="32"/>
      <point x="0" y="30" type="curve"/>
    </contour>
    <contour>
      <point x="0" y="0" type="move" name="#exit"/>
    </contour>
    <contour>
      <point x="198" y="689" type="move" name="top"/>
    </contour>
  </outline>
</glyph>
<glyph name="hah-ar.medi" format="1">
  <advance width="967"/>
  <unicode hex="FEA4"/>
  <outline>
    <contour>
      <point x="831" y="49" type="curve"/>
      <point x="820" y="21" type="line"/>
      <point x="885" y="0"/>
      <point x="919" y="-2"/>
      <point x="967" y="0" type="curve"/>
      <point x="967" y="30" type="line"/>
      <point x="923" y="28"/>
      <point x="893" y="30"/>
    </contour>
    <component base="hah-ar.init"/>
  </outline>
</glyph>
<glyph name="dal-ar.fina" format="1">
  <advance width="662"/>
  <unicode hex="FEAA"/>
  <outline>
    <contour>
      <point x="545" y="211" type="curve"/>
      <point x="516" y="200" type="line"/>
      <point x="518" y="74"/>
      <point x="575" y="0"/>
      <point x="662" y="0" type="curve"/>
      <point x="662" y="30" type="line"/>
      <point x="606" y="30"/>
      <point x="546" y="81"/>
      <point x="546" y="198" type="curve" smooth="yes"/>
      <point x="546" y="198"/>
      <point x="546" y="206"/>
    </contour>
    <component base="dal-ar"/>
    <contour>
      <point x="662" y="0" type="move" name="#entry"/>
    </contour>
    <contour>
      <point x="12" y="620" type="move" name="top"/>
    </contour>
  </outline>
</glyph>
<glyph name="seen-ar.fina" format="1">
  <advance width="1530"/>
  <unicode hex="FEB2"/>
  <outline>
    <contour>
      <point x="1530" y="30" type="line"/>
      <point x="1444" y="30"/>
      <point x="1401" y="91"/>
      <point x="1399" y="215" type="curve"/>
      <point x="1369" y="215" type="line"/>
      <point x="1371" y="75"/>
      <point x="1427" y="0"/>
      <point x="1530" y="0" type="curve"/>
    </contour>
    <component base="seen-ar" yOffset="31"/>
    <contour>
      <point x="1529" y="0" type="move" name="#entry"/>
    </contour>
    <contour>
      <point x="903" y="899" type="move" name="top"/>
    </contour>
  </outline>
</glyph>
<glyph name="seen-ar.init" format="1">
  <advance width="744"/>
  <unicode hex="FEB3"/>
  <outline>
    <contour>
      <point x="446" y="155" type="line"/>
      <point x="481" y="69"/>
      <point x="565" y="0"/>
      <point x="636" y="0" type="curve" smooth="yes"/>
      <point x="781" y="0"/>
      <point x="749" y="246"/>
      <point x="696" y="536" type="curve"/>
      <point x="666" y="532" type="line"/>
      <point x="719" y="242"/>
      <point x="747" y="30"/>
      <point x="636" y="30" type="curve" smooth="yes"/>
      <point x="577" y="30"/>
      <point x="504" y="91"/>
      <point x="474" y="167" type="curve"/>
    </contour>
    <contour>
      <point x="147" y="164" type="line"/>
      <point x="217" y="-40"/>
      <point x="475" y="-58"/>
      <point x="475" y="140" type="curve" smooth="yes"/>
      <point x="475" y="201"/>
      <point x="475" y="240"/>
      <point x="429" y="478" type="curve"/>
      <point x="399" y="472" type="line"/>
      <point x="445" y="236"/>
      <point x="445" y="201"/>
      <point x="445" y="140" type="curve" smooth="yes"/>
      <point x="445" y="-24"/>
      <point x="234" y="3"/>
      <point x="175" y="174" type="curve"/>
    </contour>
    <contour>
      <point x="140" y="506" type="line"/>
      <point x="163" y="172"/>
      <point x="171" y="33"/>
      <point x="0" y="30" type="curve"/>
      <point x="0" y="0" type="line"/>
      <point x="203" y="3"/>
      <point x="193" y="174"/>
      <point x="170" y="508" type="curve"/>
    </contour>
    <contour>
      <point x="-1" y="0" type="move" name="#entry"/>
    </contour>
    <contour>
      <point x="371" y="826" type="move" name="top"/>
    </contour>
  </outline>
</glyph>
<glyph name="seen-ar.medi" format="1">
  <advance width="821"/>
  <unicode hex="FEB4"/>
  <outline>
    <contour>
      <point x="744" y="201" type="curve"/>
      <point x="744" y="255"/>
      <point x="718" y="233"/>
      <point x="715" y="169" type="curve"/>
      <point x="722" y="69"/>
      <point x="737" y="0"/>
      <point x="821" y="0" type="curve"/>
      <point x="821" y="30" type="line"/>
      <point x="765" y="30"/>
      <point x="748" y="86"/>
    </contour>
    <component base="seen-ar.init"/>
    <contour>
      <point x="821" y="0" type="move" name="#entry"/>
    </contour>
    <contour>
      <point x="0" y="0" type="move" name="#exit"/>
    </contour>
    <contour>
      <point x="430" y="802" type="move" name="top"/>
    </contour>
  </outline>
</glyph>
<glyph name="sad-ar.init" format="1">
  <advance width="1024"/>
  <unicode hex="FEBB"/>
  <outline>
    <contour>
      <point x="0" y="30" type="curve"/>
      <point x="0" y="0" type="line"/>
      <point x="47" y="0"/>
      <point x="85" y="8"/>
      <point x="85" y="112" type="curve" smooth="yes"/>
      <point x="85" y="170"/>
      <point x="77" y="249"/>
      <point x="88" y="483" type="curve"/>
      <point x="58" y="484" type="line"/>
      <point x="50" y="302"/>
      <point x="53" y="212"/>
      <point x="54" y="155" type="curve"/>
      <point x="55" y="139"/>
      <point x="55" y="125"/>
      <point x="55" y="112" type="curve" smooth="yes"/>
      <point x="55" y="40"/>
      <point x="37" y="30"/>
    </contour>
    <contour>
      <point x="55" y="121" type="line"/>
      <point x="55" y="20"/>
      <point x="99" y="0"/>
      <point x="153" y="0" type="curve" smooth="yes"/>
      <point x="199" y="0"/>
      <point x="365" y="0"/>
      <point x="480" y="0" type="curve" smooth="yes"/>
      <point x="772" y="0"/>
      <point x="1024" y="-7"/>
      <point x="1024" y="317" type="curve" smooth="yes"/>
      <point x="1024" y="460"/>
      <point x="930" y="546"/>
      <point x="803" y="546" type="curve" smooth="yes"/>
      <point x="566" y="546"/>
      <point x="214" y="305"/>
      <point x="148" y="-34" type="curve"/>
      <point x="177" y="-40" type="line"/>
      <point x="240" y="281"/>
      <point x="581" y="521"/>
      <point x="803" y="521" type="curve" smooth="yes"/>
      <point x="914" y="521"/>
      <point x="995" y="443"/>
      <point x="995" y="318" type="curve" smooth="yes"/>
      <point x="995" y="20"/>
      <point x="773" y="30"/>
      <point x="498" y="30" type="curve" smooth="yes"/>
      <point x="378" y="30"/>
      <point x="205" y="30"/>
      <point x="154" y="30" type="curve" smooth="yes"/>
      <point x="117" y="30"/>
      <point x="83" y="40"/>
      <point x="85" y="125" type="curve"/>
    </contour>
    <contour>
      <point x="526" y="0" type="move" name="#entry"/>
    </contour>
    <contour>
      <point x="0" y="0" type="move" name="#exit"/>
    </contour>
    <contour>
      <point x="230" y="863" type="move" name="top"/>
    </contour>
  </outline>
</glyph>
<glyph name="tah-ar.init" format="1">
  <advance width="981"/>
  <unicode hex="FEC3"/>
  <outline>
    <contour>
      <point x="0" y="0" type="line"/>
      <point x="39" y="0"/>
      <point x="338" y="0"/>
      <point x="472" y="0" type="curve" smooth="yes"/>
      <point x="849" y="0"/>
      <point x="981" y="40"/>
      <point x="981" y="290" type="curve" smooth="yes"/>
      <point x="981" y="460"/>
      <point x="865" y="561"/>
      <point x="671" y="561" type="curve" smooth="yes"/>
      <point x="316" y="561"/>
      <point x="83" y="341"/>
      <point x="49" y="-27" type="curve"/>
      <point x="79" y="-29" type="line"/>
      <point x="111" y="323"/>
      <point x="332" y="531"/>
      <point x="671" y="531" type="curve" smooth="yes"/>
      <point x="849" y="531"/>
      <point x="951" y="443"/>
      <point x="951" y="290" type="curve" smooth="yes"/>
      <point x="951" y="59"/>
      <point x="811" y="30"/>
      <point x="472" y="30" type="curve" smooth="yes"/>
      <point x="247" y="30"/>
      <point x="109" y="30"/>
      <point x="0" y="30" type="curve"/>
    </contour>
    <contour>
      <point x="78" y="-75" type="line"/>
      <point x="80" y="48"/>
      <point x="91" y="155"/>
      <point x="101" y="264" type="curve" smooth="yes"/>
      <point x="112" y="389"/>
      <point x="124" y="514"/>
      <point x="124" y="664" type="curve" smooth="yes"/>
      <point x="124" y="789"/>
      <point x="117" y="912"/>
      <point x="101" y="1049" type="curve"/>
      <point x="71" y="1045" type="line"/>
      <point x="88" y="908"/>
      <point x="94" y="787"/>
      <point x="94" y="664" type="curve" smooth="yes"/>
      <point x="94" y="386"/>
      <point x="53" y="191"/>
      <point x="48" y="-75" type="curve"/>
    </contour>
    <contour>
      <point x="472" y="0" type="move" name="#entry"/>
    </contour>
    <contour>
      <point x="0" y="0" type="move" name="#exit"/>
    </contour>
    <contour>
      <point x="414" y="893" type="move" name="top"/>
    </contour>
  </outline>
</glyph>
<glyph name="ain-ar.fina" format="1">
  <advance width="651"/>
  <unicode hex="FECA"/>
  <outline>
    <contour>
      <point x="593" y="-520" type="line"/>
      <point x="349" y="-560"/>
      <point x="87" y="-485"/>
      <point x="87" y="-286" type="curve" smooth="yes"/>
      <point x="87" y="-151"/>
      <point x="214" y="-67"/>
      <point x="344" y="19" type="curve" smooth="yes"/>
      <point x="466" y="100"/>
      <point x="592" y="184"/>
      <point x="592" y="311" type="curve" smooth="yes"/>
      <point x="592" y="397"/>
      <point x="563" y="453"/>
      <point x="508" y="472" type="curve" smooth="yes"/>
      <point x="382" y="515"/>
      <point x="68" y="500"/>
      <point x="68" y="389" type="curve" smooth="yes"/>
      <point x="68" y="150"/>
      <point x="442" y="0"/>
      <point x="651" y="0" type="curve"/>
      <point x="651" y="30" type="line"/>
      <point x="448" y="30"/>
      <point x="98" y="170"/>
      <point x="98" y="389" type="curve" smooth="yes"/>
      <point x="98" y="457"/>
      <point x="354" y="492"/>
      <point x="498" y="444" type="curve" smooth="yes"/>
      <point x="540" y="430"/>
      <point x="562" y="385"/>
      <point x="562" y="311" type="curve" smooth="yes"/>
      <point x="562" y="78"/>
      <point x="57" y="3"/>
      <point x="57" y="-286" type="curve" smooth="yes"/>
      <point x="57" y="-483"/>
      <point x="298" y="-598"/>
      <point x="597" y="-550" type="curve"/>
    </contour>
    <contour>
      <point x="651" y="0" type="move" name="#entry"/>
    </contour>
    <contour>
      <point x="214" y="746" type="move" name="top"/>
    </contour>
  </outline>
</glyph>
<glyph name="ain-ar.init" format="1">
  <advance width="600"/>
  <unicode hex="FECB"/>
  <outline>
    <contour>
      <point x="284" y="27" type="line"/>
      <point x="166" y="78"/>
      <point x="88" y="168"/>
      <point x="88" y="253" type="curve" smooth="yes"/>
      <point x="88" y="402"/>
      <point x="197" y="500"/>
      <point x="364" y="500" type="curve" smooth="yes"/>
      <point x="391" y="500"/>
      <point x="426" y="493"/>
      <point x="453" y="483" type="curve"/>
      <point x="463" y="511" type="line"/>
      <point x="434" y="522"/>
      <point x="395" y="530"/>
      <point x="364" y="530" type="curve" smooth="yes"/>
      <point x="181" y="530"/>
      <point x="58" y="419"/>
      <point x="58" y="253" type="curve" smooth="yes"/>
      <point x="58" y="156"/>
      <point x="144" y="55"/>
      <point x="272" y="-1" type="curve"/>
    </contour>
    <contour>
      <point x="0" y="30" type="curve"/>
      <point x="0" y="0" type="line"/>
      <point x="57" y="-2"/>
      <point x="119" y="-4"/>
      <point x="174" y="-4" type="curve" smooth="yes"/>
      <point x="302" y="-4"/>
      <point x="457" y="3"/>
      <point x="562" y="14" type="curve"/>
      <point x="558" y="44" type="line"/>
      <point x="456" y="33"/>
      <point x="303" y="26"/>
      <point x="174" y="26" type="curve" smooth="yes"/>
      <point x="118" y="26"/>
      <point x="56" y="28"/>
    </contour>
    <contour>
      <point x="303" y="841" type="move" name="top"/>
    </contour>
  </outline>
</glyph>
<glyph name="ain-ar.medi" format="1">
  <advance width="651"/>
  <unicode hex="FECC"/>
  <outline>
    <contour>
      <point x="651" y="30" type="line"/>
      <point x="444" y="30"/>
      <point x="49" y="160"/>
      <point x="49" y="421" type="curve" smooth="yes"/>
      <point x="49" y="497"/>
      <point x="338" y="528"/>
      <point x="503" y="473" type="curve" smooth="yes"/>
      <point x="551" y="457"/>
      <point x="577" y="406"/>
      <point x="577" y="326" type="curve" smooth="yes"/>
      <point x="577" y="39"/>
      <point x="285" y="30"/>
      <point x="0" y="30" type="curve"/>
      <point x="0" y="0" type="line"/>
      <point x="285" y="0"/>
      <point x="607" y="9"/>
      <point x="607" y="326" type="curve" smooth="yes"/>
      <point x="607" y="418"/>
      <point x="574" y="480"/>
      <point x="513" y="501" type="curve" smooth="yes"/>
      <point x="385" y="545"/>
      <point x="19" y="547"/>
      <point x="19" y="421" type="curve" smooth="yes"/>
      <point x="19" y="138"/>
      <point x="440" y="0"/>
      <point x="651" y="0" type="curve"/>
    </contour>
    <contour>
      <point x="651" y="0" type="move" name="#entry"/>
    </contour>
    <contour>
      <point x="0" y="0" type="move" name="#exit"/>
    </contour>
    <contour>
      <point x="274" y="839" type="move" name="top"/>
    </contour>
  </outline>
</glyph>
<glyph name="kaf-ar.fina" format="1">
  <advance width="1145"/>
  <unicode hex="FEDA"/>
  <outline>
    <contour>
      <point x="979" y="447" type="curve"/>
      <point x="949" y="426" type="line"/>
      <point x="956" y="99"/>
      <point x="1005" y="0"/>
      <point x="1145" y="0" type="curve"/>
      <point x="1145" y="30" type="line"/>
      <point x="1024" y="30"/>
      <point x="984" y="117"/>
    </contour>
    <component base="kaf-ar"/>
    <contour>
      <point x="1145" y="0" type="move" name="#entry"/>
    </contour>
  </outline>
</glyph>
<glyph name="kaf-ar.init" format="1">
  <advance width="647"/>
  <unicode hex="FEDB"/>
  <outline>
    <contour>
      <point x="0" y="0" type="line"/>
      <point x="26" y="0"/>
      <point x="193" y="0"/>
      <point x="351" y="0" type="curve" smooth="yes"/>
      <point x="506" y="0"/>
      <point x="647" y="13"/>
      <point x="647" y="179" type="curve" smooth="yes"/>
      <point x="647" y="362"/>
      <point x="474" y="383"/>
      <point x="317" y="401" type="curve" smooth="yes"/>
      <point x="165" y="418"/>
      <point x="30" y="434"/>
      <point x="30" y="573" type="curve" smooth="yes"/>
      <point x="30" y="669"/>
      <point x="282" y="803"/>
      <point x="610" y="1000" type="curve"/>
      <point x="594" y="1026" type="line"/>
      <point x="268" y="829"/>
      <point x="0" y="687"/>
      <point x="0" y="573" type="curve" smooth="yes"/>
      <point x="0" y="241"/>
      <point x="617" y="492"/>
      <point x="617" y="179" type="curve" smooth="yes"/>
      <point x="617" y="41"/>
      <point x="494" y="30"/>
      <point x="359" y="30" type="curve" smooth="yes"/>
      <point x="205" y="30"/>
      <point x="28" y="30"/>
      <point x="0" y="30" type="curve"/>
    </contour>
    <contour>
      <point x="351" y="0" type="move" name="#entry"/>
    </contour>
    <contour>
      <point x="0" y="0" type="move" name="#exit"/>
    </contour>
  </outline>
</glyph>
<glyph name="lam-ar.init" format="1">
  <advance width="224"/>
  <unicode hex="FEDF"/>
  <outline>
    <contour>
      <point x="0" y="30" type="curve"/>
      <point x="0" y="0" type="line"/>
      <point x="249" y="0"/>
      <point x="208" y="-9"/>
      <point x="208" y="996" type="curve"/>
      <point x="178" y="996" type="line"/>
      <point x="178" y="6"/>
      <point x="211" y="30"/>
    </contour>
    <contour>
      <point x="0" y="0" type="move" name="#entry"/>
    </contour>
  </outline>
</glyph>
<glyph name="lam-ar.medi" format="1">
  <advance width="297"/>
  <unicode hex="FEE0"/>
  <outline>
    <contour>
      <point x="297" y="0" type="curve"/>
      <point x="297" y="30" type="line"/>
      <point x="162" y="30"/>
      <point x="172" y="98"/>
      <point x="172" y="202" type="curve" smooth="yes"/>
      <point x="172" y="602"/>
      <point x="175" y="937"/>
      <point x="179" y="1039" type="curve"/>
      <point x="149" y="1041" type="line"/>
      <point x="145" y="937"/>
      <point x="142" y="602"/>
      <point x="142" y="202" type="curve" smooth="yes"/>
      <point x="142" y="82"/>
      <point x="129" y="0"/>
    </contour>
    <contour>
      <point x="0" y="0" type="line"/>
      <point x="141" y="2"/>
      <point x="172" y="1"/>
      <point x="172" y="226" type="curve"/>
      <point x="142" y="226" type="line"/>
      <point x="142" y="29"/>
      <point x="120" y="31"/>
      <point x="0" y="30" type="curve"/>
    </contour>
    <contour>
      <point x="296" y="-1" type="move" name="#entry"/>
    </contour>
    <contour>
      <point x="0" y="0" type="move" name="#exit"/>
    </contour>
  </outline>
</glyph>
<glyph name="meem-ar.fina" format="1">
  <advance width="715"/>
  <unicode hex="FEE2"/>
  <outline>
    <component base="_connection2" xScale="2.2132" xOffset="456"/>
    <component base="meem-ar"/>
    <contour>
      <point x="715" y="0" type="move" name="#entry"/>
    </contour>
  </outline>
</glyph>
<glyph name="meem-ar.init" format="1">
  <advance width="649"/>
  <unicode hex="FEE3"/>
  <outline>
    <contour>
      <point x="393" y="1" type="curve" smooth="yes"/>
      <point x="534" y="1"/>
      <point x="649" y="124"/>
      <point x="649" y="274" type="curve" smooth="yes"/>
      <point x="649" y="424"/>
      <point x="534" y="547"/>
      <point x="393" y="547" type="curve" smooth="yes"/>
      <point x="247" y="547"/>
      <point x="117" y="419"/>
      <point x="117" y="274" type="curve" smooth="yes"/>
      <point x="117" y="129"/>
      <point x="247" y="1"/>
    </contour>
    <contour>
      <point x="393" y="31" type="curve" smooth="yes"/>
      <point x="263" y="31"/>
      <point x="147" y="145"/>
      <point x="147" y="274" type="curve" smooth="yes"/>
      <point x="147" y="403"/>
      <point x="263" y="517"/>
      <point x="393" y="517" type="curve" smooth="yes"/>
      <point x="518" y="517"/>
      <point x="619" y="408"/>
      <point x="619" y="274" type="curve" smooth="yes"/>
      <point x="619" y="140"/>
      <point x="518" y="31"/>
    </contour>
    <contour>
      <point x="86" y="515" type="line"/>
      <point x="121" y="234"/>
      <point x="167" y="41"/>
      <point x="0" y="30" type="curve"/>
      <point x="0" y="0" type="line"/>
      <point x="206" y="8"/>
      <point x="151" y="239"/>
      <point x="116" y="519" type="curve"/>
    </contour>
    <contour>
      <point x="0" y="0" type="move" name="#exit"/>
    </contour>
  </outline>
</glyph>
<glyph name="meem-ar.medi" format="1">
  <advance width="766"/>
  <unicode hex="FEE4"/>
  <outline>
    <contour>
      <point x="648" y="250" type="curve"/>
      <point x="619" y="258" type="line"/>
      <point x="607" y="107"/>
      <point x="629" y="5"/>
      <point x="766" y="0" type="curve"/>
      <point x="766" y="30" type="line"/>
      <point x="657" y="37"/>
      <point x="638" y="115"/>
    </contour>
    <component base="meem-ar.init"/>
  </outline>
</glyph>
<glyph name="heh-ar.fina" format="1">
  <advance width="839"/>
  <unicode hex="FEEA"/>
  <outline>
    <contour>
      <point x="687" y="292" type="curve" smooth="yes"/>
      <point x="687" y="667"/>
      <point x="49" y="647"/>
      <point x="52" y="234" type="curve" smooth="yes"/>
      <point x="53" y="74"/>
      <point x="146" y="0"/>
      <point x="349" y="0" type="curve" smooth="yes"/>
      <point x="581" y="0"/>
      <point x="687" y="92"/>
    </contour>
    <contour>
      <point x="657" y="292" type="curve" smooth="yes"/>
      <point x="657" y="112"/>
      <point x="560" y="30"/>
      <point x="349" y="30" type="curve" smooth="yes"/>
      <point x="167" y="30"/>
      <point x="83" y="94"/>
      <point x="82" y="234" type="curve" smooth="yes"/>
      <point x="79" y="607"/>
      <point x="657" y="627"/>
    </contour>
    <contour>
      <point x="839" y="30" type="line"/>
      <point x="717" y="30"/>
      <point x="688" y="124"/>
      <point x="684" y="554" type="curve"/>
      <point x="654" y="554" type="line"/>
      <point x="658" y="110"/>
      <point x="692" y="0"/>
      <point x="839" y="0" type="curve"/>
    </contour>
    <contour>
      <point x="361" y="815" type="move" name="top"/>
    </contour>
  </outline>
</glyph>
<glyph name="heh-ar.init" format="1">
  <advance width="882"/>
  <unicode hex="FEEB"/>
  <outline>
    <contour>
      <point x="0" y="0" type="line"/>
      <point x="34" y="-2"/>
      <point x="141" y="-9"/>
      <point x="303" y="32" type="curve" smooth="yes"/>
      <point x="619" y="112"/>
      <point x="624" y="635"/>
      <point x="309" y="580" type="curve" smooth="yes"/>
      <point x="29" y="531"/>
      <point x="66" y="112"/>
      <point x="354" y="38" type="curve" smooth="yes"/>
      <point x="1119" y="-159"/>
      <point x="1014" y="516"/>
      <point x="286" y="630" type="curve"/>
      <point x="282" y="600" type="line"/>
      <point x="976" y="492"/>
      <point x="1074" y="-114"/>
      <point x="362" y="68" type="curve" smooth="yes"/>
      <point x="104" y="134"/>
      <point x="68" y="502"/>
      <point x="315" y="550" type="curve" smooth="yes"/>
      <point x="589" y="603"/>
      <point x="573" y="133"/>
      <point x="295" y="62" type="curve" smooth="yes"/>
      <point x="139" y="22"/>
      <point x="36" y="28"/>
      <point x="0" y="30" type="curve"/>
    </contour>
    <contour>
      <point x="0" y="0" type="move" name="#exit"/>
    </contour>
  </outline>
</glyph>
<glyph name="heh-ar.medi" format="1">
  <advance width="716"/>
  <unicode hex="FEEC"/>
  <outline>
    <contour>
      <point x="300" y="46" type="line"/>
      <point x="171" y="-75"/>
      <point x="104" y="-189"/>
      <point x="104" y="-286" type="curve" smooth="yes"/>
      <point x="104" y="-405"/>
      <point x="214" y="-497"/>
      <point x="350" y="-497" type="curve" smooth="yes"/>
      <point x="444" y="-497"/>
      <point x="695" y="-361"/>
      <point x="695" y="-52" type="curve" smooth="yes"/>
      <point x="695" y="45"/>
      <point x="671" y="149"/>
      <point x="624" y="260" type="curve" smooth="yes"/>
      <point x="544" y="449"/>
      <point x="448" y="549"/>
      <point x="347" y="549" type="curve" smooth="yes"/>
      <point x="232" y="549"/>
      <point x="128" y="404"/>
      <point x="128" y="249" type="curve" smooth="yes"/>
      <point x="128" y="209"/>
      <point x="135" y="174"/>
      <point x="150" y="145" type="curve" smooth="yes"/>
      <point x="225" y="-1"/>
      <point x="403" y="-46"/>
      <point x="716" y="0" type="curve"/>
      <point x="716" y="30" type="line"/>
      <point x="411" y="-14"/>
      <point x="243" y="26"/>
      <point x="176" y="159" type="curve" smooth="yes"/>
      <point x="164" y="183"/>
      <point x="158" y="214"/>
      <point x="158" y="249" type="curve" smooth="yes"/>
      <point x="158" y="387"/>
      <point x="250" y="519"/>
      <point x="347" y="519" type="curve" smooth="yes"/>
      <point x="433" y="519"/>
      <point x="521" y="425"/>
      <point x="596" y="248" type="curve" smooth="yes"/>
      <point x="642" y="140"/>
      <point x="665" y="41"/>
      <point x="665" y="-52" type="curve" smooth="yes"/>
      <point x="665" y="-343"/>
      <point x="436" y="-467"/>
      <point x="350" y="-467" type="curve" smooth="yes"/>
      <point x="230" y="-467"/>
      <point x="134" y="-387"/>
      <point x="134" y="-286" type="curve" smooth="yes"/>
      <point x="134" y="-198"/>
      <point x="197" y="-92"/>
      <point x="320" y="24" type="curve"/>
    </contour>
    <contour>
      <point x="0" y="0" type="line"/>
      <point x="150" y="-7"/>
      <point x="216" y="-1"/>
      <point x="292" y="10" type="curve"/>
      <point x="288" y="40" type="line"/>
      <point x="212" y="29"/>
      <point x="150" y="23"/>
      <point x="0" y="30" type="curve"/>
    </contour>
    <contour>
      <point x="716" y="0" type="move" name="#entry"/>
    </contour>
    <contour>
      <point x="0" y="0" type="move" name="#exit"/>
    </contour>
  </outline>
</glyph>
<glyph name="waw-ar.fina" format="1">
  <advance width="601"/>
  <unicode hex="FEEE"/>
  <outline>
    <component base="waw-ar" xScale="0.9991" xyScale="-0.0433" yScale="0.9991" yxScale="0.0433" xOffset="3" yOffset="31"/>
    <component base="_connection2" xScale="0.5057" xOffset="542"/>
    <contour>
      <point x="174" y="813" type="move" name="top"/>
    </contour>
  </outline>
</glyph>
<glyph name="alefMaksura-ar.fina" format="1">
  <advance width="875"/>
  <unicode hex="FEF0"/>
  <outline>
    <contour>
      <point x="19" y="84" type="line"/>
      <point x="10" y="14"/>
      <point x="0" y="-56"/>
      <point x="0" y="-122" type="curve" smooth="yes"/>
      <point x="0" y="-361"/>
      <point x="176" y="-526"/>
      <point x="429" y="-526" type="curve" smooth="yes"/>
      <point x="759" y="-526"/>
      <point x="875" y="-330"/>
      <point x="751" y="15" type="curve"/>
      <point x="723" y="5" type="line"/>
      <point x="840" y="-322"/>
      <point x="737" y="-496"/>
      <point x="429" y="-496" type="curve" smooth="yes"/>
      <point x="192" y="-496"/>
      <point x="30" y="-344"/>
      <point x="30" y="-122" type="curve" smooth="yes"/>
      <point x="30" y="-58"/>
      <point x="40" y="10"/>
      <point x="49" y="80" type="curve"/>
    </contour>
    <contour>
      <point x="875" y="30" type="line"/>
      <point x="751" y="26"/>
      <point x="691" y="27"/>
      <point x="541" y="48" type="curve"/>
      <point x="537" y="18" type="line"/>
      <point x="691" y="-3"/>
      <point x="751" y="0"/>
      <point x="875" y="0" type="curve"/>
    </contour>
    <contour>
      <point x="875" y="0" type="move" name="#entry"/>
    </contour>
    <contour>
      <point x="258" y="304" type="move" name="top"/>
    </contour>
  </outline>
</glyph>
<glyph name="lam_alef-ar" format="1">
  <advance width="466"/>
  <unicode hex="FEFB"/>
  <outline>
    <contour>
      <point x="20" y="30" type="curve"/>
      <point x="20" y="0" type="line"/>
      <point x="379" y="0"/>
      <point x="453" y="-4"/>
      <point x="453" y="1001" type="curve"/>
      <point x="423" y="1001" type="line"/>
      <point x="423" y="11"/>
      <point x="341" y="30"/>
    </contour>
    <contour>
      <point x="143" y="997" type="line"/>
      <point x="161" y="712"/>
      <point x="177" y="512"/>
      <point x="159" y="12" type="curve"/>
      <point x="189" y="10" type="line"/>
      <point x="207" y="512"/>
      <point x="191" y="714"/>
      <point x="173" y="999" type="curve"/>
    </contour>
    <contour>
      <point x="177" y="-219" type="move" name="_top"/>
    </contour>
    <contour>
      <point x="148" y="1153" type="move" name="top"/>
    </contour>
  </outline>
</glyph>
<glyph name="lam_alef-ar.fina" format="1">
  <advance width="574"/>
  <unicode hex="FEFC"/>
  <outline>
    <contour>
      <point x="574" y="0" type="curve"/>
      <point x="574" y="30" type="line"/>
      <point x="375" y="30"/>
      <point x="435" y="370"/>
      <point x="443" y="525" type="curve"/>
      <point x="413" y="527" type="line"/>
      <point x="403" y="348"/>
      <point x="349" y="0"/>
    </contour>
    <component base="lam_alef-ar"/>
    <contour>
      <point x="136" y="1129" type="move" name="top"/>
    </contour>
  </outline>
</glyph>
<glyph name="_connection" format="1">
  <advance width="117"/>
  <outline>
    <contour>
      <point x="45" y="157" type="curve"/>
      <point x="17" y="147" type="line"/>
      <point x="38" y="74"/>
      <point x="75" y="17"/>
      <point x="117" y="0" type="curve"/>
      <point x="128" y="27" type="line"/>
      <point x="94" y="40"/>
      <point x="63" y="91"/>
    </contour>
    <contour>
      <point x="117" y="0" type="move" name="#entry"/>
    </contour>
  </outline>
</glyph>
<glyph name="_connection2" format="1">
  <advance width="117"/>
  <outline>
    <contour>
      <point x="0" y="0" type="line"/>
      <point x="62" y="0"/>
      <point x="81" y="0"/>
      <point x="117" y="0" type="curve"/>
      <point x="117" y="30" type="line"/>
      <point x="80" y="30"/>
      <point x="61" y="30"/>
      <point x="0" y="30" type="curve"/>
    </contour>
    <contour>
      <point x="117" y="0" type="move" name="#entry"/>
    </contour>
    <contour>
      <point x="0" y="0" type="move" name="#exit"/>
    </contour>
  </outline>
</glyph>
<glyph name="_twodot.001" format="1">
  <advance width="600"/>
  <outline>
    <contour>
      <point x="392" y="-587" type="curve" smooth="yes"/>
      <point x="372" y="-601"/>
      <point x="336" y="-612"/>
      <point x="310" y="-612" type="curve" smooth="yes"/>
      <point x="289" y="-612"/>
      <point x="271" y="-605"/>
      <point x="256" y="-600" type="curve"/>
      <point x="241" y="-594"/>
      <point x="229" y="-590"/>
      <point x="216" y="-590" type="curve" smooth="yes"/>
      <point x="201" y="-590"/>
      <point x="185" y="-597"/>
      <point x="169" y="-609" type="curve" smooth="yes"/>
      <point x="149" y="-625"/>
      <point x="130" y="-601"/>
      <point x="151" y="-586" type="curve" smooth="yes"/>
      <point x="171" y="-569"/>
      <point x="195" y="-560"/>
      <point x="216" y="-560" type="curve" smooth="yes"/>
      <point x="253" y="-560"/>
      <point x="279" y="-582"/>
      <point x="310" y="-582" type="curve" smooth="yes"/>
      <point x="330" y="-582"/>
      <point x="360" y="-573"/>
      <point x="374" y="-563" type="curve" smooth="yes"/>
      <point x="395" y="-548"/>
      <point x="413" y="-572"/>
    </contour>
  </outline>
</glyph>
<glyph name="_twodots.001" format="1">
  <advance width="600"/>
  <outline>
    <contour>
      <point x="406" y="-512" type="line"/>
      <point x="348" y="-517"/>
      <point x="299" y="-518"/>
      <point x="254" y="-519" type="curve" smooth="yes"/>
      <point x="210" y="-520"/>
      <point x="169" y="-521"/>
      <point x="125" y="-525" type="curve"/>
      <point x="127" y="-555" type="line"/>
      <point x="215" y="-547"/>
      <point x="291" y="-551"/>
      <point x="408" y="-542" type="curve"/>
    </contour>
  </outline>
</glyph>
<glyph name="_twodots.002" format="1">
  <advance width="600"/>
  <outline>
    <contour>
      <point x="310" y="-612" type="curve" smooth="yes"/>
      <point x="338" y="-612"/>
      <point x="371" y="-602"/>
      <point x="392" y="-587" type="curve" smooth="yes"/>
      <point x="397" y="-582"/>
      <point x="401" y="-576"/>
      <point x="401" y="-571" type="curve" smooth="yes"/>
      <point x="401" y="-563"/>
      <point x="395" y="-558"/>
      <point x="387" y="-558" type="curve" smooth="yes"/>
      <point x="384" y="-558"/>
      <point x="379" y="-560"/>
      <point x="374" y="-563" type="curve" smooth="yes"/>
      <point x="358" y="-574"/>
      <point x="332" y="-582"/>
      <point x="310" y="-582" type="curve" smooth="yes"/>
      <point x="279" y="-582"/>
      <point x="253" y="-560"/>
      <point x="216" y="-560" type="curve" smooth="yes"/>
      <point x="195" y="-560"/>
      <point x="169" y="-570"/>
      <point x="151" y="-586" type="curve" smooth="yes"/>
      <point x="146" y="-590"/>
      <point x="142" y="-596"/>
      <point x="142" y="-601" type="curve" smooth="yes"/>
      <point x="142" y="-609"/>
      <point x="148" y="-614"/>
      <point x="156" y="-614" type="curve" smooth="yes"/>
      <point x="160" y="-614"/>
      <point x="165" y="-612"/>
      <point x="169" y="-609" type="curve" smooth="yes"/>
      <point x="184" y="-598"/>
      <point x="203" y="-590"/>
      <point x="216" y="-590" type="curve" smooth="yes"/>
      <point x="225" y="-590"/>
      <point x="241" y="-594"/>
      <point x="256" y="-600" type="curve"/>
      <point x="278" y="-607"/>
      <point x="299" y="-612"/>
    </contour>
  </outline>
</glyph>
<glyph name="_twodots.003" format="1">
  <advance width="600"/>
  <outline>
    <contour>
      <point x="156" y="-607" type="curve"/>
      <point x="245" y="-607"/>
      <point x="311" y="-603"/>
      <point x="396" y="-598" type="curve"/>
      <point x="422" y="-596"/>
      <point x="419" y="-566"/>
      <point x="394" y="-568" type="curve"/>
      <point x="309" y="-573"/>
      <point x="245" y="-577"/>
      <point x="155" y="-577" type="curve"/>
      <point x="130" y="-577"/>
      <point x="130" y="-608"/>
    </contour>
  </outline>
</glyph>
<glyph name="_twodots" format="1">
  <advance width="600"/>
  <outline>
    <contour>
      <point x="152" y="-601" type="curve" smooth="yes"/>
      <point x="189" y="-566"/>
      <point x="241" y="-553"/>
      <point x="285" y="-571" type="curve" smooth="yes"/>
      <point x="327" y="-588"/>
      <point x="378" y="-580"/>
      <point x="400" y="-555" type="curve"/>
      <point x="418" y="-536"/>
      <point x="440" y="-556"/>
      <point x="423" y="-573" type="curve"/>
      <point x="393" y="-610"/>
      <point x="328" y="-622"/>
      <point x="273" y="-599" type="curve" smooth="yes"/>
      <point x="241" y="-586"/>
      <point x="201" y="-595"/>
      <point x="173" y="-622" type="curve"/>
      <point x="153" y="-639"/>
      <point x="135" y="-617"/>
    </contour>
  </outline>
</glyph>
<glyph name="alef_small" format="1">
  <advance width="600"/>
  <outline>
    <contour>
      <point x="316" y="165" type="curve" smooth="yes"/>
      <point x="316" y="173"/>
      <point x="316" y="186"/>
      <point x="316" y="197" type="curve"/>
      <point x="315" y="235"/>
      <point x="314" y="288"/>
      <point x="309" y="330" type="curve"/>
      <point x="304" y="354"/>
      <point x="275" y="351"/>
      <point x="279" y="326" type="curve" smooth="yes"/>
      <point x="287" y="274"/>
      <point x="285" y="201"/>
      <point x="286" y="168" type="curve" smooth="yes"/>
      <point x="287" y="142"/>
      <point x="316" y="140"/>
    </contour>
    <contour>
      <point x="300" y="0" type="move" name="bottom"/>
    </contour>
    <contour>
      <point x="5" y="0" type="move" name="bottomleft"/>
    </contour>
    <contour>
      <point x="300" y="250" type="move" name="center"/>
    </contour>
    <contour>
      <point x="300" y="500" type="move" name="top"/>
    </contour>
    <contour>
      <point x="20" y="500" type="move" name="topleft"/>
    </contour>
  </outline>
</glyph>
<glyph name="behDotless-ar.fina" format="1">
  <advance width="1226"/>
  <outline>
    <contour>
      <point x="1113" y="503" type="line"/>
      <point x="1125" y="372"/>
      <point x="1152" y="30"/>
      <point x="976" y="30" type="curve" smooth="yes"/>
      <point x="920" y="30"/>
      <point x="590" y="31"/>
      <point x="515" y="31" type="curve" smooth="yes"/>
      <point x="492" y="31"/>
      <point x="471" y="32"/>
      <point x="457" y="32" type="curve" smooth="yes"/>
      <point x="86" y="32"/>
      <point x="-27" y="200"/>
      <point x="88" y="495" type="curve"/>
      <point x="60" y="503" type="line"/>
      <point x="-61" y="190"/>
      <point x="65" y="2"/>
      <point x="457" y="2" type="curve" smooth="yes"/>
      <point x="471" y="2"/>
      <point x="492" y="2"/>
      <point x="515" y="1" type="curve" smooth="yes"/>
      <point x="590" y="-2"/>
      <point x="920" y="0"/>
      <point x="976" y="0" type="curve" smooth="yes"/>
      <point x="1184" y="0"/>
      <point x="1155" y="374"/>
      <point x="1143" y="505" type="curve"/>
    </contour>
    <contour>
      <point x="1120" y="286" type="line"/>
      <point x="1120" y="109"/>
      <point x="1121" y="0"/>
      <point x="1226" y="0" type="curve"/>
      <point x="1226" y="30" type="line"/>
      <point x="1158" y="30"/>
      <point x="1149" y="107"/>
      <point x="1149" y="286" type="curve"/>
    </contour>
    <contour>
      <point x="1226" y="0" type="move" name="#entry"/>
    </contour>
  </outline>
</glyph>
<glyph name="behDotless-ar.init" format="1">
  <advance width="207"/>
  <outline>
    <contour>
      <point x="139" y="536" type="line"/>
      <point x="166" y="127"/>
      <point x="187" y="30"/>
      <point x="0" y="30" type="curve"/>
      <point x="0" y="0" type="line"/>
      <point x="225" y="0"/>
      <point x="196" y="131"/>
      <point x="169" y="538" type="curve"/>
    </contour>
    <contour>
      <point x="0" y="0" type="move" name="#exit"/>
    </contour>
    <contour>
      <point x="28" y="-250" type="move" name="_top"/>
    </contour>
    <contour>
      <point x="21" y="690" type="move" name="top"/>
    </contour>
  </outline>
</glyph>
<glyph name="behDotless-ar.medi.001" format="1">
  <advance width="615"/>
  <outline>
    <contour>
      <point x="497" y="212" type="line"/>
      <point x="501" y="48"/>
      <point x="515" y="0"/>
      <point x="615" y="0" type="curve"/>
      <point x="615" y="30" type="line"/>
      <point x="535" y="30"/>
      <point x="526" y="70"/>
      <point x="526" y="216" type="curve"/>
    </contour>
    <contour>
      <point x="73" y="499" type="line"/>
      <point x="73" y="33"/>
      <point x="78" y="0"/>
      <point x="292" y="0" type="curve" smooth="yes"/>
      <point x="536" y="0"/>
      <point x="536" y="22"/>
      <point x="522" y="485" type="curve"/>
      <point x="492" y="485" type="line"/>
      <point x="506" y="23"/>
      <point x="506" y="30"/>
      <point x="292" y="30" type="curve" smooth="yes"/>
      <point x="105" y="30"/>
      <point x="103" y="36"/>
      <point x="103" y="499" type="curve"/>
    </contour>
    <contour>
      <point x="76" y="253" type="line"/>
      <point x="80" y="107"/>
      <point x="67" y="30"/>
      <point x="0" y="30" type="curve"/>
      <point x="0" y="0" type="line"/>
      <point x="90" y="0"/>
      <point x="115" y="73"/>
      <point x="105" y="255" type="curve"/>
    </contour>
    <contour>
      <point x="615" y="-1" type="move" name="#entry"/>
    </contour>
    <contour>
      <point x="-1" y="-1" type="move" name="#exit"/>
    </contour>
  </outline>
</glyph>
<glyph name="behDotless-ar.medi" format="1">
  <advance width="384"/>
  <outline>
    <contour>
      <point x="265" y="215" type="line"/>
      <point x="269" y="51"/>
      <point x="284" y="0"/>
      <point x="384" y="0" type="curve"/>
      <point x="384" y="30" type="line"/>
      <point x="304" y="30"/>
      <point x="294" y="73"/>
      <point x="294" y="219" type="curve"/>
    </contour>
    <contour>
      <point x="0" y="0" type="move"/>
    </contour>
    <contour>
      <point x="262" y="500" type="line"/>
      <point x="276" y="42"/>
      <point x="268" y="30"/>
      <point x="0" y="30" type="curve"/>
      <point x="0" y="0" type="line"/>
      <point x="293" y="0"/>
      <point x="306" y="31"/>
      <point x="292" y="500" type="curve"/>
    </contour>
    <contour>
      <point x="384" y="0" type="move" name="#entry"/>
    </contour>
    <contour>
      <point x="0" y="0" type="move" name="#exit"/>
    </contour>
    <contour>
      <point x="117" y="660" type="move" name="top"/>
    </contour>
  </outline>
</glyph>
<glyph name="dotabove-ar" format="1">
  <advance width="600"/>
  <outline>
    <component base="one_dot"/>
    <contour>
      <point x="289" y="585" type="move" name="_top"/>
    </contour>
    <contour>
      <point x="289" y="675" type="move" name="top"/>
    </contour>
  </outline>
</glyph>
<glyph name="dotbelow-ar" format="1">
  <advance width="270"/>
  <outline>
    <component base="one_dot" xOffset="-155" yOffset="-934"/>
    <contour>
      <point x="135" y="-243" type="move" name="_bottom"/>
    </contour>
    <contour>
      <point x="135" y="-333" type="move" name="bottom"/>
    </contour>
    <contour>
      <point x="135" y="-333" type="move" name="top"/>
    </contour>
  </outline>
</glyph>
<glyph name="dotcenter-ar" format="1">
  <advance width="600"/>
  <outline>
    <component base="one_dot" xOffset="13" yOffset="-607"/>
    <contour>
      <point x="303" y="35" type="move" name="_center"/>
    </contour>
    <contour>
      <point x="300" y="-1" type="move" name="bottom"/>
    </contour>
  </outline>
</glyph>
<glyph name="fehDotless-ar.fina" format="1">
  <advance width="1239"/>
  <outline>
    <contour>
      <point x="1239" y="30" type="line"/>
      <point x="1086" y="31"/>
      <point x="887" y="42"/>
      <point x="791" y="142" type="curve" smooth="yes"/>
      <point x="629" y="311"/>
      <point x="740" y="573"/>
      <point x="970" y="573" type="curve" smooth="yes"/>
      <point x="1097" y="573"/>
      <point x="1197" y="455"/>
      <point x="1197" y="309" type="curve" smooth="yes"/>
      <point x="1197" y="126"/>
      <point x="1051" y="30"/>
      <point x="770" y="30" type="curve" smooth="yes"/>
      <point x="735" y="30"/>
      <point x="695" y="30"/>
      <point x="649" y="30" type="curve" smooth="yes"/>
      <point x="587" y="30"/>
      <point x="514" y="29"/>
      <point x="427" y="29" type="curve" smooth="yes"/>
      <point x="144" y="29"/>
      <point x="15" y="125"/>
      <point x="15" y="331" type="curve" smooth="yes"/>
      <point x="15" y="399"/>
      <point x="29" y="480"/>
      <point x="58" y="578" type="curve"/>
      <point x="30" y="586" type="line"/>
      <point x="0" y="486"/>
      <point x="-15" y="403"/>
      <point x="-15" y="331" type="curve" smooth="yes"/>
      <point x="-15" y="106"/>
      <point x="129" y="-1"/>
      <point x="427" y="-1" type="curve" smooth="yes"/>
      <point x="578" y="-1"/>
      <point x="687" y="0"/>
      <point x="770" y="0" type="curve" smooth="yes"/>
      <point x="1067" y="0"/>
      <point x="1227" y="107"/>
      <point x="1227" y="309" type="curve" smooth="yes"/>
      <point x="1227" y="472"/>
      <point x="1114" y="603"/>
      <point x="970" y="603" type="curve" smooth="yes"/>
      <point x="713" y="603"/>
      <point x="588" y="309"/>
      <point x="769" y="122" type="curve" smooth="yes"/>
      <point x="874" y="13"/>
      <point x="1086" y="1"/>
      <point x="1239" y="0" type="curve"/>
    </contour>
    <contour>
      <point x="1239" y="0" type="move" name="#entry"/>
    </contour>
    <contour>
      <point x="970" y="804" type="move" name="top"/>
    </contour>
  </outline>
</glyph>
<glyph name="fehDotless-ar.init" format="1">
  <advance width="600"/>
  <outline>
    <contour>
      <point x="0" y="30" type="curve"/>
      <point x="0" y="0" type="line"/>
      <point x="-1" y="0"/>
      <point x="180" y="-3"/>
      <point x="223" y="-3" type="curve" smooth="yes"/>
      <point x="422" y="-2"/>
      <point x="596" y="-22"/>
      <point x="596" y="236" type="curve" smooth="yes"/>
      <point x="596" y="409"/>
      <point x="502" y="575"/>
      <point x="335" y="575" type="curve" smooth="yes"/>
      <point x="194" y="575"/>
      <point x="65" y="445"/>
      <point x="65" y="295" type="curve" smooth="yes"/>
      <point x="65" y="153"/>
      <point x="149" y="114"/>
      <point x="305" y="114" type="curve" smooth="yes"/>
      <point x="422" y="114"/>
      <point x="527" y="143"/>
      <point x="623" y="186" type="curve"/>
      <point x="611" y="213" type="line"/>
      <point x="519" y="172"/>
      <point x="395" y="144"/>
      <point x="305" y="144" type="curve" smooth="yes"/>
      <point x="168" y="144"/>
      <point x="97" y="171"/>
      <point x="95" y="295" type="curve" smooth="yes"/>
      <point x="95" y="427"/>
      <point x="208" y="545"/>
      <point x="335" y="545" type="curve" smooth="yes"/>
      <point x="482" y="545"/>
      <point x="566" y="394"/>
      <point x="566" y="237" type="curve" smooth="yes"/>
      <point x="566" y="38"/>
      <point x="482" y="23"/>
      <point x="223" y="27" type="curve" smooth="yes"/>
      <point x="188" y="28"/>
      <point x="3" y="30"/>
    </contour>
    <contour>
      <point x="0" y="0" type="move" name="#entry"/>
    </contour>
    <contour>
      <point x="317" y="793" type="move" name="top"/>
    </contour>
  </outline>
</glyph>
<glyph name="fehDotless-ar.medi" format="1">
  <advance width="600"/>
  <outline>
    <contour>
      <point x="600" y="30" type="line"/>
      <point x="326" y="30"/>
      <point x="109" y="10"/>
      <point x="109" y="254" type="curve" smooth="yes"/>
      <point x="109" y="435"/>
      <point x="208" y="570"/>
      <point x="338" y="570" type="curve" smooth="yes"/>
      <point x="455" y="570"/>
      <point x="555" y="417"/>
      <point x="555" y="238" type="curve" smooth="yes"/>
      <point x="555" y="88"/>
      <point x="449" y="30"/>
      <point x="170" y="30" type="curve" smooth="yes"/>
      <point x="108" y="30"/>
      <point x="49" y="30"/>
      <point x="0" y="30" type="curve"/>
      <point x="0" y="0" type="line"/>
      <point x="47" y="0"/>
      <point x="107" y="0"/>
      <point x="170" y="0" type="curve" smooth="yes"/>
      <point x="465" y="0"/>
      <point x="585" y="67"/>
      <point x="585" y="238" type="curve" smooth="yes"/>
      <point x="585" y="434"/>
      <point x="473" y="600"/>
      <point x="338" y="600" type="curve" smooth="yes"/>
      <point x="190" y="600"/>
      <point x="79" y="451"/>
      <point x="79" y="254" type="curve" smooth="yes"/>
      <point x="79" y="-22"/>
      <point x="328" y="0"/>
      <point x="600" y="0" type="curve"/>
    </contour>
    <contour>
      <point x="600" y="0" type="move" name="#entry"/>
    </contour>
    <contour>
      <point x="0" y="0" type="move" name="#exit"/>
    </contour>
    <contour>
      <point x="326" y="799" type="move" name="top"/>
    </contour>
  </outline>
</glyph>
<glyph name="gafsarkashabove-ar" format="1">
  <advance width="600"/>
  <outline>
    <contour>
      <point x="-5" y="703" type="curve" smooth="yes"/>
      <point x="62" y="784"/>
      <point x="381" y="969"/>
      <point x="545" y="1069" type="curve"/>
      <point x="567" y="1081"/>
      <point x="583" y="1056"/>
      <point x="561" y="1043" type="curve" smooth="yes"/>
      <point x="396" y="945"/>
      <point x="82" y="760"/>
      <point x="19" y="683" type="curve"/>
      <point x="2" y="664"/>
      <point x="-21" y="684"/>
    </contour>
    <contour>
      <point x="285" y="655" type="move" name="_top"/>
    </contour>
    <contour>
      <point x="285" y="1066" type="move" name="top"/>
    </contour>
  </outline>
</glyph>
<glyph name="one_dot" format="1">
  <advance width="600"/>
  <outline>
    <contour>
      <point x="289" y="605" type="curve" smooth="yes"/>
      <point x="306" y="605"/>
      <point x="324" y="622"/>
      <point x="324" y="640" type="curve" smooth="yes"/>
      <point x="324" y="659"/>
      <point x="306" y="675"/>
      <point x="289" y="675" type="curve" smooth="yes"/>
      <point x="269" y="675"/>
      <point x="254" y="659"/>
      <point x="254" y="640" type="curve" smooth="yes"/>
      <point x="254" y="622"/>
      <point x="269" y="605"/>
    </contour>
  </outline>
</glyph>
<glyph name="qafDotless-ar.fina" format="1">
  <advance width="852"/>
  <outline>
    <contour>
      <point x="52" y="10" type="line"/>
      <point x="-11" y="-376"/>
      <point x="278" y="-616"/>
      <point x="600" y="-445" type="curve" smooth="yes"/>
      <point x="767" y="-356"/>
      <point x="830" y="-136"/>
      <point x="785" y="199" type="curve" smooth="yes"/>
      <point x="760" y="384"/>
      <point x="669" y="495"/>
      <point x="537" y="495" type="curve" smooth="yes"/>
      <point x="347" y="495"/>
      <point x="209" y="262"/>
      <point x="331" y="108" type="curve" smooth="yes"/>
      <point x="425" y="-11"/>
      <point x="632" y="0"/>
      <point x="852" y="0" type="curve"/>
      <point x="852" y="30" type="line"/>
      <point x="631" y="30"/>
      <point x="439" y="19"/>
      <point x="355" y="126" type="curve" smooth="yes"/>
      <point x="250" y="259"/>
      <point x="369" y="465"/>
      <point x="537" y="465" type="curve" smooth="yes"/>
      <point x="652" y="465"/>
      <point x="733" y="365"/>
      <point x="755" y="195" type="curve" smooth="yes"/>
      <point x="797" y="-128"/>
      <point x="740" y="-337"/>
      <point x="586" y="-419" type="curve" smooth="yes"/>
      <point x="286" y="-579"/>
      <point x="23" y="-357"/>
      <point x="81" y="5" type="curve"/>
    </contour>
    <contour>
      <point x="852" y="0" type="move" name="#entry"/>
    </contour>
    <contour>
      <point x="539" y="710" type="move" name="top"/>
    </contour>
  </outline>
</glyph>
<glyph name="sad-01" format="1">
  <advance width="1704"/>
  <outline>
    <contour>
      <point x="739" y="121" type="line"/>
      <point x="762" y="20"/>
      <point x="783" y="0"/>
      <point x="837" y="0" type="curve" smooth="yes"/>
      <point x="883" y="0"/>
      <point x="1049" y="0"/>
      <point x="1164" y="0" type="curve" smooth="yes"/>
      <point x="1456" y="0"/>
      <point x="1708" y="-7"/>
      <point x="1708" y="317" type="curve" smooth="yes"/>
      <point x="1708" y="460"/>
      <point x="1614" y="546"/>
      <point x="1487" y="546" type="curve" smooth="yes"/>
      <point x="1250" y="546"/>
      <point x="898" y="305"/>
      <point x="832" y="-34" type="curve"/>
      <point x="861" y="-40" type="line"/>
      <point x="924" y="281"/>
      <point x="1265" y="521"/>
      <point x="1487" y="521" type="curve" smooth="yes"/>
      <point x="1598" y="521"/>
      <point x="1679" y="443"/>
      <point x="1679" y="318" type="curve" smooth="yes"/>
      <point x="1679" y="20"/>
      <point x="1457" y="30"/>
      <point x="1182" y="30" type="curve" smooth="yes"/>
      <point x="1062" y="30"/>
      <point x="889" y="30"/>
      <point x="838" y="30" type="curve" smooth="yes"/>
      <point x="801" y="30"/>
      <point x="790" y="40"/>
      <point x="769" y="125" type="curve"/>
    </contour>
  </outline>
</glyph>
<glyph name="shaddaAlefabove-ar" format="1">
  <advance width="600"/>
  <outline>
    <component base="damma-ar"/>
    <contour>
      <point x="314" y="618" type="move" name="_top"/>
    </contour>
    <contour>
      <point x="314" y="1011" type="move" name="top"/>
    </contour>
  </outline>
</glyph>
<glyph name="shaddaDamma-ar" format="1">
  <advance width="600"/>
  <outline>
    <component base="damma-ar" yOffset="387"/>
    <component base="shadda-ar" xScale="0.9829" xyScale="0.1843" yScale="0.9829" yxScale="-0.1843" xOffset="68" yOffset="56"/>
    <contour>
      <point x="318" y="783" type="move" name="_top"/>
    </contour>
    <contour>
      <point x="318" y="1398" type="move" name="top"/>
    </contour>
  </outline>
</glyph>
<glyph name="shaddaDammatan-ar" format="1">
  <advance width="600"/>
  <outline>
    <component base="shadda-ar" xScale="0.975" xyScale="0.2223" yScale="0.975" yxScale="-0.2223" xOffset="110" yOffset="-68"/>
    <component base="dammatan-ar" xOffset="53" yOffset="319"/>
    <contour>
      <point x="303" y="665" type="move" name="_top"/>
    </contour>
    <contour>
      <point x="303" y="1330" type="move" name="top"/>
    </contour>
  </outline>
</glyph>
<glyph name="shaddaKasra-ar" format="1">
  <advance width="600"/>
  <outline>
    <component base="fatha-ar"/>
    <component base="shadda-ar" xScale="0.9506" xyScale="0.3105" yScale="0.9506" yxScale="-0.3105" xOffset="241" yOffset="111"/>
    <contour>
      <point x="421" y="791" type="move" name="_top"/>
    </contour>
    <contour>
      <point x="421" y="1068" type="move" name="top"/>
    </contour>
  </outline>
</glyph>
<glyph name="shaddaKasratan-ar" format="1">
  <advance width="600"/>
  <outline>
    <component base="shadda-ar" xScale="0.9729" xyScale="0.2313" yScale="0.9729" yxScale="-0.2313" xOffset="156" yOffset="-977"/>
    <component base="kasratan-ar"/>
    <contour>
      <point x="362" y="-393" type="move" name="_top"/>
    </contour>
    <contour>
      <point x="362" y="-5" type="move" name="top"/>
    </contour>
  </outline>
</glyph>
<glyph name="threedotsdownabove-ar" format="1">
  <advance width="600"/>
  <outline>
    <contour>
      <point x="290" y="868" type="move"/>
    </contour>
    <component base="_twodots" xOffset="25" yOffset="1292"/>
    <component base="one_dot" xOffset="6" yOffset="181"/>
    <contour>
      <point x="302" y="639" type="move" name="_top"/>
    </contour>
    <contour>
      <point x="288" y="864" type="move" name="top"/>
    </contour>
  </outline>
</glyph>
<glyph name="threedotsdownbelow-ar" format="1">
  <advance width="600"/>
  <outline>
    <contour>
      <point x="338" y="-339" type="move"/>
    </contour>
    <component base="_twodots" xOffset="29" yOffset="352"/>
    <component base="one_dot" xOffset="8" yOffset="-982"/>
    <contour>
      <point x="301" y="-186" type="move" name="_bottom"/>
    </contour>
    <contour>
      <point x="298" y="-416" type="move" name="top"/>
    </contour>
  </outline>
</glyph>
<glyph name="threedotsupabove-ar" format="1">
  <advance width="600"/>
  <outline>
    <contour>
      <point x="310" y="398" type="move"/>
    </contour>
    <component base="_twodots" xOffset="26" yOffset="845"/>
    <component base="one_dot" xOffset="12" yOffset="-274"/>
    <contour>
      <point x="298" y="211" type="move" name="_top"/>
    </contour>
    <contour>
      <point x="296" y="425" type="move" name="top"/>
    </contour>
  </outline>
</glyph>
<glyph name="two_dots_2" format="1">
  <advance width="600"/>
  <outline>
    <contour>
      <point x="265" y="-599" type="curve" smooth="yes"/>
      <point x="272" y="-599"/>
      <point x="278" y="-607"/>
      <point x="289" y="-612" type="curve" smooth="yes"/>
      <point x="306" y="-620"/>
      <point x="329" y="-607"/>
      <point x="329" y="-584" type="curve" smooth="yes"/>
      <point x="329" y="-569"/>
      <point x="315" y="-556"/>
      <point x="300" y="-556" type="curve" smooth="yes"/>
      <point x="282" y="-556"/>
      <point x="278" y="-571"/>
      <point x="264" y="-571" type="curve" smooth="yes"/>
      <point x="249" y="-571"/>
      <point x="248" y="-551"/>
      <point x="223" y="-551" type="curve" smooth="yes"/>
      <point x="204" y="-551"/>
      <point x="188" y="-569"/>
      <point x="188" y="-588" type="curve" smooth="yes"/>
      <point x="188" y="-605"/>
      <point x="204" y="-621"/>
      <point x="222" y="-621" type="curve" smooth="yes"/>
      <point x="230" y="-621"/>
      <point x="236" y="-619"/>
      <point x="244" y="-613" type="curve" smooth="yes"/>
      <point x="247" y="-610"/>
      <point x="259" y="-599"/>
    </contour>
  </outline>
</glyph>
<glyph name="twodotshorizontalabove-ar.001" format="1">
  <advance width="600"/>
  <outline>
    <component base="_twodots"/>
    <contour>
      <point x="301" y="501" type="move" name="bottom"/>
    </contour>
    <contour>
      <point x="302" y="746" type="move" name="top"/>
    </contour>
  </outline>
</glyph>
<glyph name="twodotshorizontalabove-ar" format="1">
  <advance width="600"/>
  <outline>
    <component base="_twodots" xOffset="180" yOffset="1465"/>
    <contour>
      <point x="463" y="837" type="move" name="_top"/>
    </contour>
    <contour>
      <point x="461" y="908" type="move" name="top"/>
    </contour>
  </outline>
</glyph>
<glyph name="twodotshorizontalbelow-ar" format="1">
  <advance width="600"/>
  <outline>
    <component base="_twodots"/>
    <contour>
      <point x="272" y="-538" type="move" name="_bottom"/>
    </contour>
    <contour>
      <point x="294" y="-638" type="move" name="top"/>
    </contour>
  </outline>
</glyph>
<glyph name="twodotsverticalabove-ar" format="1">
  <advance width="600"/>
  <outline>
    <contour>
      <point x="278" y="898" type="line"/>
      <point x="280" y="875"/>
      <point x="283" y="763"/>
      <point x="279" y="696" type="curve"/>
      <point x="309" y="694" type="line"/>
      <point x="313" y="763"/>
      <point x="310" y="877"/>
      <point x="308" y="900" type="curve"/>
    </contour>
    <contour>
      <point x="294" y="674" type="move" name="_top"/>
    </contour>
    <contour>
      <point x="296" y="780" type="move" name="top"/>
    </contour>
  </outline>
</glyph>
<glyph name="twodotsverticalbelow-ar" format="1">
  <advance width="600"/>
  <outline>
    <contour>
      <point x="267" y="-163" type="line"/>
      <point x="268" y="-244"/>
      <point x="271" y="-324"/>
      <point x="276" y="-404" type="curve"/>
      <point x="306" y="-402" type="line"/>
      <point x="301" y="-322"/>
      <point x="298" y="-243"/>
      <point x="297" y="-163" type="curve"/>
    </contour>
    <contour>
      <point x="287" y="-143" type="move" name="_bottom"/>
    </contour>
    <contour>
      <point x="281" y="-263" type="move" name="top"/>
    </contour>
  </outline>
</glyph>
<glyph name="wasla-ar" format="1">
  <advance width="600"/>
  <outline>
    <contour>
      <point x="121" y="854" type="curve" smooth="yes"/>
      <point x="256" y="905"/>
      <point x="302" y="822"/>
      <point x="438" y="853" type="curve"/>
      <point x="462" y="858"/>
      <point x="457" y="887"/>
      <point x="432" y="883" type="curve"/>
      <point x="381" y="871"/>
      <point x="342" y="879"/>
      <point x="300" y="889" type="curve" smooth="yes"/>
      <point x="248" y="901"/>
      <point x="191" y="912"/>
      <point x="111" y="882" type="curve"/>
      <point x="87" y="871"/>
      <point x="98" y="846"/>
    </contour>
    <contour>
      <point x="272" y="837" type="move" name="_top"/>
    </contour>
    <contour>
      <point x="272" y="912" type="move" name="top"/>
    </contour>
  </outline>
</glyph>
